<?xml version="1.0" standalone="no"?>
<!DOCTYPE svg PUBLIC "-//W3C//DTD SVG 1.1//EN" "http://www.w3.org/Graphics/SVG/1.1/DTD/svg11.dtd" >
<svg xmlns="http://www.w3.org/2000/svg">
<metadata>Generated by IcoMoon</metadata>
<defs>
<font id="business" horiz-adv-x="1024">
<font-face units-per-em="1024" ascent="960" descent="-64" />
<missing-glyph horiz-adv-x="1024" />
<glyph unicode="&#x20;" horiz-adv-x="512" d="" />
<glyph unicode="&#xe900;" glyph-name="24" d="M215.281 265.751h222.924l9.661 36.147h-175.276c4.813 10.547 11.4 19.971 19.866 28.132 8.397 8.148 18.022 15.8 28.741 22.866 10.716 7.068 22.221 13.681 34.473 20.001 12.255 6.241 24.576 12.559 36.864 18.972 12.39 6.761 24.576 13.827 36.49 21.158 11.912 7.378 22.971 15.642 33.108 24.829 10.171 9.147 19.149 19.52 26.862 31.091 7.782 11.494 13.688 24.858 17.715 39.895 4.301 16.082 5.258 30.175 2.903 42.401-2.355 12.214-7.204 22.385-14.679 30.587-7.406 8.184-17.065 14.467-28.91 18.772-11.809 4.332-25.121 6.479-39.903 6.479-17.953 0-34.816-3.064-50.586-9.147-15.734-6.080-29.798-14.508-42.12-25.252-12.39-10.76-22.766-23.521-31.232-38.267-8.466-14.815-14.508-30.828-18.194-48.159h40.927c2.424 10.263 6.211 20.48 11.331 30.546 5.087 10.107 11.436 19.213 19.082 27.2 7.611 8.051 16.348 14.543 26.145 19.53 9.864 4.946 20.685 7.442 32.599 7.442 8.975 0 17.101-1.441 24.335-4.349 7.27-2.89 13.107-7.066 17.58-12.493 4.472-5.45 7.475-11.973 9.011-19.479 1.467-7.585 0.991-16.013-1.503-25.265-3.174-11.907-7.816-22.362-13.891-31.334-6.144-8.975-13.791-17.306-23.142-25.055-9.252-7.68-20.378-15.291-33.28-22.866-12.902-7.506-27.853-15.772-44.682-24.748-13.755-7.091-27.203-14.612-40.243-22.625-13.107-8.054-25.362-17.347-36.864-27.96-11.538-10.573-21.981-23.040-31.402-37.266-9.455-14.308-17.681-31.572-24.713-51.786zM665.702 381.734h-114.586l158.38 167.084h0.955l-44.749-167.084zM731.853 607.084l-214.971-221.972-10.616-39.414h149.742l-21.402-79.946h38.538l21.402 79.946h46.216l9.659 36.037h-46.216l60.383 225.349h-32.735zM815.752 750.172c-156.57 156.559-401.679 170.933-575.145 44.158l24.405-24.399c159.846 113.695 383.386 99.359 526.61-43.892 120.899-120.907 152.986-306.722 82.499-460.56l-54.134 38.4-15.908-169.441 154.693 70.958-56.456 40.069c79.836 167.8 45.942 372.224-86.564 504.707zM189.986 562.944l15.94 169.467-154.726-70.961 56.49-40.067c-79.906-167.8-45.978-372.188 86.494-504.735 156.569-156.531 401.751-170.931 575.18-44.129l-24.371 24.371c-159.846-113.669-383.386-99.333-526.677 43.894-120.9 120.932-152.917 306.76-82.466 460.559l54.135-38.4z" />
<glyph unicode="&#xe901;" glyph-name="award" d="M807.869 344.404l-116.329-30.377-66.253-97.828-113.288 41.677-113.324-41.677-66.217 97.894-116.361 30.31 5.938 115.884-75.162 90.112 75.162 90.112-5.905 115.882 116.328 30.345 66.253 97.86 113.288-41.677 113.288 41.677 66.253-97.895 116.362-30.31-5.939-115.882 75.162-90.112-75.162-90.079 5.906-115.917zM813.125 79.708l-114.245 7.401-74.478-86.935-89.772 212.984 103.969-38.226 74.002 109.33 12.902 3.379 87.621-207.933zM399.598 0.174l-74.478 86.935-114.245-7.401 87.621 207.967 12.902-3.379 73.966-109.363 104.005 38.226-89.772-212.984zM836.746 652.083l6.653 130.355-130.798 34.065-74.002 109.363-126.6-46.558-126.6 46.558-74.002-109.329-130.765-34.099 6.622-130.355-84.855-101.683 84.855-101.683-6.655-130.355 84.549-21.983-107.181-254.326 152.339 9.866 99.292-115.919 102.4 242.998 102.4-242.998 99.292 115.919 152.34-9.866-107.182 254.292 84.516 22.016-6.62 130.355 84.854 101.683-84.854 101.683zM512 721.067c94.277 0 170.668-76.39 170.668-170.667s-76.39-170.668-170.668-170.668c-94.277 0-170.668 76.39-170.668 170.668s76.39 170.667 170.668 170.667zM512 755.2c-113.119 0-204.8-91.681-204.8-204.8s91.681-204.8 204.8-204.8c113.119 0 204.8 91.681 204.8 204.8s-91.681 204.8-204.8 204.8z" />
<glyph unicode="&#xe902;" glyph-name="bag" d="M213.333 806.4h614.399v-682.668h-614.399v682.668zM861.868 89.6v750.933h-682.668v-750.933h682.668zM622.935 703.992h34.132v-102.4c0-75.264-61.235-136.535-136.532-136.535-75.3 0-136.535 61.271-136.535 136.535v102.4h34.135v34.133h-102.4v-34.133h34.132v-102.4c0-94.277 76.39-170.668 170.668-170.668 94.275 0 170.665 76.39 170.665 170.668v102.4h34.135v34.133h-102.4v-34.133z" />
<glyph unicode="&#xe903;" glyph-name="balance" d="M666.317 328.532l132.744 442.509h6.144l132.746-442.509h-271.634zM802.132 192c-63.488 0-117.043 43.561-132.198 102.4h264.397c-15.155-58.839-68.71-102.4-132.198-102.4zM529.068 772.266h-34.135v34.134h34.135v-34.134zM631.468 55.468v-34.135h-238.935v34.135h238.935zM357.683 328.532h-271.633l132.745 442.509h6.143l132.745-442.509zM221.867 192c-63.488 0-117.043 43.561-132.198 102.4h264.398c-15.155-58.839-68.71-102.4-132.199-102.4zM563.2 807.625v32.908h-34.132v34.133h-34.135v-34.133h-34.132v-32.908h-266.582l-143.018-479.093c0-94.239 76.39-170.665 170.667-170.665 94.275 0 170.666 76.426 170.666 170.665l-132.129 442.509h200.397v-32.908h34.132v-648.533h-136.532v-68.268h-170.667v-34.132h648.534v34.132h-170.668v68.268h-136.532v648.533h34.132v32.908h200.397l-132.129-442.509c0-94.239 76.39-170.665 170.665-170.665 94.277 0 170.668 76.426 170.668 170.665l-143.020 479.093h-266.58z" />
<glyph unicode="&#xe904;" glyph-name="bank" d="M211.49 471.073c0.034 0.102 11.094 30.449 41.643 65.674l20.856 24.028-57.891 57.892 6.485 6.451 96.29-32.087 13.243 7.544c23.519 13.414 49.766 23.483 77.414 31.744 11.402-18.637 26.214-34.783 43.658-47.788h-69.189v-34.132h341.332v34.132h-69.187c17.782 13.279 32.768 29.834 44.27 48.914 72.397-22.766 119.944-65.741 143.532-130.15l6.075-16.589 0.41-0.102 4.268-20.411c4.777-22.871 7.168-48.128 7.168-75.095 0-101.135-16.315-172.099-97.382-213.128l-10.038-5.087-50.209-100.352h-26.076l-36.285 72.602-22.868-1.741c-23.176-1.774-43.656-2.593-64.34-2.593-43.418 0-84.856 3.039-126.636 9.318l-24.507 3.686-40.62-81.272h-26.076l-60.214 120.389-10.307 5.051c-73.695 36.216-122.812 87.347-143.736 147.628h56.627v34.132h-65.468c-1.809 11.162-2.798 22.528-2.798 34.135v34.132h92.638l7.918 23.073zM418.132 721.066c0 75.401 61.133 136.534 136.535 136.534 75.4 0 136.532-61.133 136.532-136.534s-61.133-136.534-136.532-136.534c-75.402 0-136.535 61.133-136.535 136.534zM76.8 482.132v-68.265c0-101.548 60.825-190.705 174.455-246.513l64.477-128.955h68.268l38.981 77.96c40.719-6.108 84.378-9.692 131.686-9.692 24.131 0 46.044 1.091 66.934 2.696l35.466-70.963h68.265l54.582 109.125c100.488 50.857 116.086 143.291 116.086 243.574 0 27.853-2.355 55.501-7.885 82.058 27.067-18.911 42.017-62.259 42.017-161.69h34.135c0 142.095-33.316 188.621-88.269 203.571-23.962 65.398-72.671 120.32-161.042 149.435 6.316 17.784 10.376 36.659 10.376 56.593 0 94.276-76.39 170.667-170.665 170.667-94.277 0-170.668-76.39-170.668-170.667 0-20.036 4.096-38.98 10.445-56.831-30.139-9.388-56.525-21.028-79.258-33.997l-101.854 33.928-45.5-45.499 59.528-59.53c-35.976-41.436-48.162-77.005-48.162-77.005h-102.4zM520.532 652.8v136.533h-34.132v-136.533h34.132zM622.932 652.8v34.132h-34.132v68.268h34.132v34.133h-68.268v-136.533h68.268zM349.868 516.268h-68.268v-68.268h68.268v68.268z" />
<glyph unicode="&#xe905;" glyph-name="basket-1" d="M627.474 439.468c-79.498-44.204-133.156-126.909-133.156-221.868 0-57.72 20.004-110.797 53.35-153.6h-411.852l-64.717 375.468h556.374zM988.672 217.6c0-122.54-102.74-221.868-229.512-221.868s-229.478 99.328-229.478 221.868c0 122.54 102.707 221.868 229.478 221.868s229.512-99.328 229.512-221.868zM579.551 29.868c47.206-42.225 110.216-68.268 179.61-68.268 146.294 0 264.84 114.586 264.84 256 0 98.235-57.275 183.398-141.243 226.337v63.795h-206.508l-165.409 415.745-32.973-12.289 160.527-403.457h-394.069l160.563 403.457-32.973 12.289-165.376-415.745h-206.541v-68.265h35.328l70.622-409.6h473.601zM317.816 371.2h-35.364v-204.8h35.364v204.8zM459.026 371.2h-35.295v-204.8h35.295v204.8zM600.269 234.67v-34.132h317.78v34.132h-317.78z" />
<glyph unicode="&#xe906;" glyph-name="basket-2" d="M869.207 422.4l-39.357-236.168-164.966 164.966v2.934h-2.936l-68.265 68.268h275.525zM444.142 906.411l-92.874-241.561-250.301 250.299-24.167-24.132 868.966-868.967 24.133 24.166-110.387 110.354 44.303 265.83h34.135v68.268h-199.647l-159.88 415.743-31.882-12.288 155.205-403.455h-176.333l-147.763 147.763 98.373 255.692-31.882 12.288zM806.638 46.932h-590.712l-62.567 375.468h343.792l-68.268 68.268h-108.065l30.036 78.029-26.452 26.452-40.141-104.481h-199.647v-68.268h34.133l68.267-409.6h648.532l10.173 61.030-29.629 29.627-9.454-56.525zM391.816 354.138h-34.135v-204.8h34.135v204.8zM528.348 354.138h-34.132v-204.8h34.132v204.8zM664.883 149.338v105.336l-34.132 34.132v-139.469h34.132z" />
<glyph unicode="&#xe907;" glyph-name="basket-3" d="M861.399 399.188l-62.574-375.468h-590.717l-62.573 375.468h715.865zM436.334 883.198l-159.908-415.745h-199.626v-68.265h34.133l68.267-409.6h648.532l68.268 409.6h34.132v68.265h-199.624l-159.908 415.745-31.867-12.288 155.2-403.457h-380.936l155.203 403.457-31.867 12.288zM384.003 330.926h-34.135v-204.8h34.135v204.8zM520.532 330.926h-34.132v-204.8h34.132v204.8zM657.068 330.926h-34.132v-204.8h34.132v204.8z" />
<glyph unicode="&#xe908;" glyph-name="basket-4" d="M632.148 439.468c-76.833-44.204-128.681-126.909-128.681-221.868 0-57.72 19.318-110.797 51.54-153.6h-398.097l-62.567 375.468h537.804zM981.332 217.6c0-122.54-99.328-221.868-221.865-221.868-122.54 0-221.868 99.328-221.868 221.868s99.328 221.868 221.868 221.868c122.537 0 221.865-99.328 221.865-221.868zM585.83 29.868c45.635-42.225 106.529-68.268 173.637-68.268 141.414 0 256 114.586 256 256 0 98.235-55.365 183.398-136.535 226.337v63.795h-199.644l-159.882 415.745-31.88-12.289 155.205-403.457h-380.928l155.203 403.457-31.88 12.289-159.88-415.745h-199.646v-68.265h34.133l68.267-409.6h457.83zM332.8 371.2h-34.135v-204.8h34.135v204.8zM469.332 371.2h-34.132v-204.8h34.132v204.8zM795.919 268.795l-36.454 109.74-36.521-109.74h-117.079l94.482-70.927-35.876-111.48 94.994 68.539 94.822-68.539-35.771 111.48 94.548 70.927h-117.146z" />
<glyph unicode="&#xe909;" glyph-name="basket-5" d="M632.148 439.468c-76.833-44.204-128.681-126.909-128.681-221.868 0-57.72 19.318-110.797 51.54-153.6h-398.1l-62.573 375.468h537.814zM981.332 217.6c0-122.54-99.328-221.868-221.865-221.868-122.54 0-221.868 99.328-221.868 221.868s99.328 221.868 221.868 221.868c122.537 0 221.865-99.328 221.865-221.868zM128 29.868h457.83c45.637-42.225 106.529-68.268 173.637-68.268 141.414 0 256 114.586 256 256 0 98.235-55.365 183.398-136.535 226.337v63.795h-199.644l-159.882 415.745-31.88-12.289 155.205-403.457h-380.933l155.208 403.457-31.88 12.289-159.901-415.745h-199.625v-68.265h34.133l68.267-409.6zM332.8 371.2h-34.135v-204.8h34.135v204.8zM469.332 371.2h-34.132v-204.8h34.132v204.8zM776.532 234.668v136.532h-34.132v-136.532h-136.535v-34.135h136.535v-136.532h34.132v136.532h136.532v34.135h-136.532z" />
<glyph unicode="&#xe90a;" glyph-name="basket-6" d="M632.148 439.468c-76.833-44.204-128.681-126.909-128.681-221.868 0-57.72 19.318-110.797 51.54-153.6h-398.097l-62.567 375.468h537.804zM981.332 217.6c0-122.54-99.328-221.868-221.865-221.868-122.54 0-221.868 99.328-221.868 221.868s99.328 221.868 221.868 221.868c122.537 0 221.865-99.328 221.865-221.868zM128 29.868h457.83c45.635-42.225 106.529-68.268 173.637-68.268 141.414 0 256 114.586 256 256 0 98.235-55.365 183.398-136.535 226.337v63.795h-199.644l-159.882 415.745-31.88-12.289 155.205-403.457h-380.928l155.203 403.457-31.88 12.289-159.88-415.745h-199.646v-68.265h34.133l68.267-409.6zM332.8 371.2h-34.135v-204.8h34.135v204.8zM469.332 371.2h-34.132v-204.8h34.132v204.8zM711.201 157.253l-72.397 72.43-24.133-24.166 96.53-96.53 193.057 193.093-24.131 24.133-168.927-168.96z" />
<glyph unicode="&#xe90b;" glyph-name="bear" d="M883.233 679.427l-33.449 25.092c25.871 2.56 46.216 24.16 46.216 50.681 0 28.228-22.971 51.2-51.2 51.2s-51.2-22.972-51.2-51.2c0-3.174 0.374-6.239 0.919-9.254l-33.449 25.132c7.475 39.482 42.086 69.455 83.73 69.455 47.071 0 85.332-38.267 85.332-85.333 0-33.174-19.182-61.678-46.899-75.773zM895.009 171.932c-40.207-35.267-186.061-150.6-374.477-150.6-189.166 0-334.437 115.269-374.476 150.536l32.017 480.12 114.893 86.145h455.135l114.893-86.145 32.015-480.056zM110.933 755.2c0 47.066 38.264 85.333 85.334 85.333 41.642 0 76.255-29.972 83.731-69.455l-33.451-25.132c0.546 3.014 0.92 6.079 0.92 9.254 0 28.228-22.972 51.2-51.2 51.2s-51.2-22.972-51.2-51.2c0-26.522 20.344-48.121 46.216-50.681l-33.45-25.092c-27.682 14.095-46.9 42.599-46.9 75.773zM964.268 755.2c0 65.881-53.591 119.466-119.468 119.466-60.040 0-109.363-44.68-117.727-102.4h-413.079c-8.364 57.72-57.687 102.4-117.727 102.4-65.878 0-119.467-53.586-119.467-119.466 0-46.893 27.409-87.173 66.833-106.693l-32.7-490.639c0 0 170.667-170.668 409.599-170.668 238.935 0 409.6 170.668 409.6 170.668l-32.699 490.639c39.424 19.52 66.834 59.801 66.834 106.693zM418.138 430.938l-34.132 68.268h-68.268l34.132-68.268h68.268zM622.938 430.938h68.268l34.132 68.268h-68.268l-34.132-68.268zM520.538 89.608c-70.484 0-170.668 35.295-170.668 68.268 0 155.279 168.96 170.668 170.668 170.668s170.668-15.388 170.668-170.668c0-32.973-100.183-68.268-170.668-68.268zM520.538 362.675c-34.132 0-204.8-34.132-204.8-204.8 0-68.268 136.532-102.4 204.8-102.4s204.8 34.132 204.8 102.4c0 170.668-170.668 204.8-204.8 204.8zM452.268 260.268c0-37.681 30.584-68.268 68.268-68.268s68.268 30.587 68.268 68.268c0 37.678-136.535 37.678-136.535 0zM486.4 123.738h68.268v34.132h-68.268v-34.132z" />
<glyph unicode="&#xe90c;" glyph-name="binoculars" d="M580.268 448v170.668h-136.535v-170.668h-34.132v-273.068h-268.049c16.828 239.857 70.929 471.212 89.668 546.134h212.513v-68.266h136.535v68.266h212.513c18.739-74.956 72.84-306.38 89.667-546.134h-268.047v273.068h-34.132zM477.868 448v136.532h68.265v-136.532h-68.265zM409.6 72.532h-272.725c0.41 22.692 1.467 45.466 2.696 68.268h270.029v-68.268zM273.068 789.333h102.4v-34.133h-102.4v34.133zM648.532 789.333h102.4v-34.133h-102.4v34.133zM614.4 72.532v68.268h270.029c1.229-22.802 2.286-45.576 2.696-68.268h-272.724zM580.268 140.8v-102.4h341.332c0 341.332-102.4 716.8-102.4 716.8h-34.132v68.266h-170.668v-68.266h-68.268v-68.268h-68.265v68.268h-68.268v68.266h-170.667v-68.266h-34.133c0 0-102.4-375.468-102.4-716.8h341.332v375.468h34.135v-34.135h68.265v34.135h34.135v-273.068z" />
<glyph unicode="&#xe90d;" glyph-name="box-1" d="M110.933 823.467h819.199v-170.667h-819.199v170.667zM896 72.532h-750.933v546.135h750.933v-546.135zM76.8 618.668h34.133v-580.268h819.199v580.268h34.135v238.932h-887.468v-238.932zM691.2 482.13h-341.335v-68.268h341.335v68.268z" />
<glyph unicode="&#xe90e;" glyph-name="box-2" d="M725.332 21.332c-122.537 0-221.865 99.328-221.865 221.868s99.328 221.868 221.865 221.868c122.54 0 221.868-99.328 221.868-221.868s-99.328-221.868-221.868-221.868zM93.867 123.732v546.135h750.933v-200.33c-35.668 18.877-76.288 29.663-119.468 29.663-29.967 0-58.606-5.394-85.332-14.881v49.014h-341.332v-68.265h299.348c-76.833-44.204-128.684-126.909-128.684-221.868 0-43.18 10.788-83.796 29.663-119.468h-405.128zM59.733 874.667h819.199v-170.667h-819.199v170.667zM878.932 447.66v222.208h34.135v238.932h-887.468v-238.932h34.133v-580.268h461.142c46.728-62.054 120.796-102.4 204.457-102.4 141.414 0 256 114.586 256 256 0 83.661-40.346 157.729-102.4 204.46zM742.4 396.8h-34.132v-136.532h-136.532v-34.135h136.532v-136.532h34.132v136.532h136.535v34.135h-136.535v136.532z" />
<glyph unicode="&#xe90f;" glyph-name="box-3" d="M725.332 21.332c-122.537 0-221.865 99.328-221.865 221.868s99.328 221.868 221.865 221.868c122.54 0 221.868-99.328 221.868-221.868s-99.328-221.868-221.868-221.868zM93.867 123.732v546.135h750.933v-200.33c-35.668 18.877-76.288 29.663-119.468 29.663-29.967 0-58.606-5.394-85.332-14.881v49.014h-341.332v-68.265h299.348c-76.833-44.204-128.684-126.909-128.684-221.868 0-43.18 10.788-83.796 29.663-119.468h-405.128zM59.733 874.667h819.199v-170.667h-819.199v170.667zM878.932 447.66v222.208h34.135v238.932h-887.468v-238.932h34.133v-580.268h461.142c46.728-62.054 120.796-102.4 204.457-102.4 141.414 0 256 114.586 256 256 0 83.661-40.346 157.729-102.4 204.46zM571.735 226.138h307.2v34.132h-307.2v-34.132z" />
<glyph unicode="&#xe910;" glyph-name="box-4" d="M725.332 21.332c-122.537 0-221.865 99.328-221.865 221.868s99.328 221.868 221.865 221.868c122.54 0 221.868-99.328 221.868-221.868s-99.328-221.868-221.868-221.868zM93.867 123.732v546.135h750.933v-200.33c-35.668 18.877-76.288 29.663-119.468 29.663-29.967 0-58.606-5.394-85.332-14.881v49.014h-341.332v-68.265h299.348c-76.833-44.204-128.684-126.909-128.684-221.868 0-43.18 10.788-83.796 29.663-119.468h-405.128zM59.733 874.667h819.199v-170.667h-819.199v170.667zM878.932 447.66v222.208h34.135v238.932h-887.468v-238.932h34.133v-580.268h461.142c46.728-62.054 120.796-102.4 204.457-102.4 141.414 0 256 114.586 256 256 0 83.661-40.346 157.729-102.4 204.46zM761.789 294.395l-36.454 109.74-36.524-109.74h-117.076l94.482-70.927-35.876-111.48 94.994 68.539 94.82-68.539-35.771 111.48 94.551 70.927h-117.146z" />
<glyph unicode="&#xe911;" glyph-name="box-5" d="M725.332 21.332c-122.537 0-221.865 99.328-221.865 221.868s99.328 221.868 221.865 221.868c122.54 0 221.868-99.328 221.868-221.868s-99.328-221.868-221.868-221.868zM93.867 123.732v546.135h750.933v-200.33c-35.668 18.877-76.288 29.663-119.468 29.663-29.967 0-58.606-5.394-85.332-14.881v49.014h-341.332v-68.265h299.348c-76.833-44.204-128.684-126.909-128.684-221.868 0-43.18 10.788-83.796 29.663-119.468h-405.128zM59.733 874.667h819.199v-170.667h-819.199v170.667zM878.932 447.66v222.208h34.135v238.932h-887.468v-238.932h34.133v-580.268h461.142c46.728-62.054 120.796-102.4 204.457-102.4 141.414 0 256 114.586 256 256 0 83.661-40.346 157.729-102.4 204.46zM677.069 182.851l-72.397 72.433-24.131-24.166 96.527-96.53 193.057 193.093-24.131 24.131-168.927-168.96z" />
<glyph unicode="&#xe912;" glyph-name="box-6" d="M51.2 592.353h34.133v-580.265h770.936l-34.132 34.132h-702.67v546.132h156.535l-34.133 34.135h-156.535v156.535l-34.133 34.134v-224.803zM324.265 387.551h156.536l-68.268 68.265h-88.269v-68.265zM338.399 626.483l-170.667 170.667h736.801v-170.667h-566.134zM870.4 94.482l-293.069 293.069h88.269v68.265h-156.534l-136.535 136.535h497.869v-497.869zM938.668 592.351v238.932h-805.069l-48.982 49.016-24.167-24.132 868.966-868.967 24.133 24.166-49.016 48.98v532.004h34.135z" />
<glyph unicode="&#xe913;" glyph-name="bull" d="M835.551 504.146l-59.018 19.668v9.518h88.271l-29.253-29.187zM638.124 192h-269.315l-104.276 312.732v131h477.868v-131l-104.276-312.732zM674.132 69.601l-48.264-48.269h-244.805l-48.264 48.269v74.13l14.131 14.136h313.073l14.129-14.136v-74.13zM142.132 533.332h88.268v-9.518l-59.017-19.668-29.252 29.187zM93.32 715.401c40.073-40.654 87.553-67.923 137.080-76.668v-67.784c-71.373 15.089-112.914 77.384-137.080 144.452zM913.27 715.025c-24.236-66.905-65.705-128.959-136.737-144.076v67.784c49.393 8.709 96.732 35.881 136.737 76.292zM981.332 908.8c-34.132-136.533-136.532-238.932-238.932-238.932h-477.868c-102.399 0-204.799 102.399-238.932 238.932 0 0 0.034-248.801 128.922-341.332h-26.522l-34.133-34.135 68.266-68.265 71.68 23.892 98.987-296.96-34.132-34.132v-102.4l68.265-68.268h273.068l68.268 68.268v102.4l-34.135 34.132 98.988 296.96 71.68-23.892 68.268 68.265-34.135 34.135h-26.519c128.888 92.531 128.919 341.332 128.919 341.332zM435.2 55.475h34.132v68.268h-34.132v-68.268zM537.6 55.475h34.132v68.268h-34.132v-68.268zM332.8 499.205l34.132-68.268h68.268l-34.132 68.268h-68.268zM571.732 430.938h68.265l34.135 68.268h-68.268l-34.132-68.268z" />
<glyph unicode="&#xe914;" glyph-name="bullseye" d="M678.799 670.131c-62.999 47.787-141.332 76.527-226.532 76.527-207.375 0-375.468-168.106-375.468-375.466s168.093-375.468 375.468-375.468c207.373 0 375.465 168.108 375.465 375.468 0 85.197-28.733 163.533-76.534 226.542l-24.466-24.474c41.8-56.66 66.867-126.395 66.867-202.068 0-188.216-153.132-341.335-341.332-341.335s-341.334 153.119-341.334 341.335c0 188.211 153.133 341.333 341.334 341.333 75.666 0 145.4-25.055 202.066-66.867l24.466 24.474zM580.961 572.308c-37.161 23.826-81.265 37.821-128.694 37.821-131.932 0-238.933-107.008-238.933-238.935 0-131.917 107.001-238.932 238.933-238.932s238.932 107.016 238.932 238.932c0 47.447-14.001 91.546-37.827 128.717l-24.865-24.883c18.025-30.515 28.559-65.91 28.559-103.834 0-112.947-91.866-204.8-204.8-204.8s-204.8 91.853-204.8 204.8c0 112.947 91.865 204.8 204.8 204.8 37.932 0 73.331-10.547 103.841-28.57l24.852 24.883zM447.667 438.989l30.802 30.822c-8.399 2.22-17.093 3.789-26.202 3.789-56.53 0-102.4-45.875-102.4-102.4s45.87-102.4 102.4-102.4c56.535 0 102.4 45.875 102.4 102.4 0 9.147-1.559 17.784-3.799 26.214l-30.802-30.822c-2.399-35.464-31.706-63.66-67.799-63.66-37.665 0-68.265 30.584-68.265 68.268 0 36.078 28.201 65.4 63.665 67.789zM942.203 836.979l-24.133 24.167-56.2-56.218v78.268h-34.135v-112.401l-34.132-34.133v78.268h-34.132v-112.401l-319.268-319.25 24.133-24.166 319.265 319.283h112.402v34.134h-78.267l34.132 34.133h112.402v34.134h-78.269l56.202 56.183z" />
<glyph unicode="&#xe915;" glyph-name="calculator" d="M836.268 789.333v-682.666c0-18.842-15.293-34.135-34.135-34.135h-580.266c-18.842 0-34.134 15.293-34.134 34.135v682.666c0 18.842 15.292 34.134 34.134 34.134h580.266c18.842 0 34.135-15.292 34.135-34.134zM221.867 857.6c-37.683 0-68.267-30.584-68.267-68.267v-682.666c0-37.683 30.584-68.268 68.267-68.268h580.266c37.683 0 68.268 30.584 68.268 68.268v682.666c0 37.683-30.584 68.267-68.268 68.267h-580.266zM290.132 721.071h443.735v-102.401h-443.735v102.401zM256 584.538h512v170.666h-512v-170.666zM290.132 482.13h34.135v-34.135h-34.135v34.135zM256 413.862h102.4v102.4h-102.4v-102.4zM426.665 482.13h34.132v-34.135h-34.132v34.135zM392.532 413.862h102.4v102.4h-102.4v-102.4zM563.203 482.13h34.132v-34.135h-34.132v34.135zM529.068 413.862h102.4v102.4h-102.4v-102.4zM699.732 482.13h34.135v-34.135h-34.135v34.135zM665.6 413.862h102.4v102.4h-102.4v-102.4zM290.132 345.605h34.135v-34.135h-34.135v34.135zM256 277.338h102.4v102.4h-102.4v-102.4zM426.665 345.605h34.132v-34.135h-34.132v34.135zM392.532 277.338h102.4v102.4h-102.4v-102.4zM563.203 345.605h34.132v-34.135h-34.132v34.135zM529.068 277.338h102.4v102.4h-102.4v-102.4zM290.132 209.068h34.135v-34.135h-34.135v34.135zM256 140.8h102.4v102.4h-102.4v-102.4zM426.665 209.068h34.132v-34.135h-34.132v34.135zM392.532 140.8h102.4v102.4h-102.4v-102.4zM563.203 209.068h34.132v-34.135h-34.132v34.135zM529.068 140.8h102.4v102.4h-102.4v-102.4zM699.732 345.6h34.135v-170.668h-34.135v170.668zM665.6 140.8h102.4v238.932h-102.4v-238.932z" />
<glyph unicode="&#xe916;" glyph-name="card-1" d="M930.132 610.138h-819.199v136.533h819.199v-136.533zM930.132 132.27h-819.199v375.468h819.199v-375.468zM964.268 780.804h-887.468v-682.666h887.468v682.666zM281.6 439.47h-102.4v-34.132h102.4v34.132zM418.135 439.47h-102.4v-34.132h102.4v34.132zM554.665 439.47h-102.4v-34.132h102.4v34.132zM691.2 439.47h-102.4v-34.132h102.4v34.132z" />
<glyph unicode="&#xe917;" glyph-name="card-2" d="M947.2 285.862c0-122.54-99.328-221.868-221.868-221.868-122.537 0-221.865 99.328-221.865 221.868s99.328 221.868 221.865 221.868c122.54 0 221.868-99.328 221.868-221.868zM59.733 234.662v375.468h819.199v-119.808c-42.803 32.22-95.88 51.54-153.6 51.54-29.967 0-58.606-5.394-85.332-14.881v14.881h-102.4v-34.132h60.416c-76.833-44.204-128.684-126.909-128.684-221.868 0-17.544 1.81-34.68 5.12-51.2h-414.719zM59.733 849.062h819.199v-136.533h-819.199v136.533zM913.068 883.196h-887.468v-682.666h458.614c35.192-99.364 129.708-170.668 241.119-170.668 141.414 0 256 114.586 256 256 0 67.105-26.010 128-68.265 173.637v423.696zM128 507.725h102.4v34.132h-102.4v-34.132zM264.538 507.725h102.4v34.132h-102.4v-34.132zM503.462 541.857h-102.4v-34.132h102.4v34.132zM870.124 370.342l-24.131 24.133-168.927-168.96-72.397 72.43-24.133-24.166 96.53-96.53 193.057 193.093z" />
<glyph unicode="&#xe918;" glyph-name="card-3" d="M128 482.125h102.4v34.132h-102.4v-34.132zM264.538 482.125h102.4v34.132h-102.4v-34.132zM401.068 482.125h102.4v34.132h-102.4v-34.132zM640 516.257h-102.4v-34.132h102.4v34.132zM981.332 379.732v-307.2h-375.465v307.2h375.465zM59.733 209.068v375.465h664.882c-50.004-25.326-84.616-76.662-84.616-136.532v-34.132h-68.268v-204.8h-511.999zM59.733 823.467h819.199v-136.534h-819.199v136.534zM913.068 448v-34.132h-238.935v34.132c0 65.876 53.591 119.468 119.468 119.468s119.468-53.591 119.468-119.468zM878.932 575.66c-5.12 3.446-10.785 6.075-16.348 8.873h16.348v-8.873zM947.2 448c0 36.25-13.107 69.189-34.132 95.47v314.13h-887.468v-682.668h546.132v-136.532h443.735v375.468h-68.268v34.132zM810.668 212.206c19.83 7.066 34.132 25.805 34.132 48.061 0 28.262-22.938 51.2-51.2 51.2s-51.2-22.938-51.2-51.2c0-22.257 14.303-40.996 34.132-48.061v-71.406h34.135v71.406z" />
<glyph unicode="&#xe919;" glyph-name="card-4" d="M827.732 550.4h-614.399l-22.767-68.268h-11.367c-18.842 0-34.133 15.327-34.133 34.135v68.265c0 18.808 15.292 34.135 34.133 34.135h682.668c18.842 0 34.132-15.327 34.132-34.135v-68.265c0-18.808-15.291-34.135-34.132-34.135h-11.366l-22.769 68.268zM916.89 174.932h-532.89l34.132 341.335h384.991l113.766-341.335zM124.177 174.932l113.767 341.335h111.924l-68.268-341.335h-157.423zM930.132 516.268v68.265c0 37.683-30.582 68.268-68.265 68.268h-682.668c-37.683 0-68.267-30.584-68.267-68.268v-68.265c0-37.683 30.584-68.268 68.267-68.268l-102.4-307.2h887.468l-102.4 307.2c37.683 0 68.265 30.584 68.265 68.268zM179.2 721.062h682.668v34.134h-682.668v-34.134zM145.068 755.196h-34.134v-34.134h34.134v34.134zM930.132 755.196h-34.132v-34.134h34.132v34.134z" />
<glyph unicode="&#xe91a;" glyph-name="card-5" d="M179.2 695.47h750.932v-512h-750.932v512zM76.8 149.338h887.468v580.266h-887.468v-580.266zM657.068 627.205h204.8v-34.135h-204.8v34.135zM622.935 558.938h273.065v102.4h-273.065v-102.4zM213.334 456.538h682.666v34.132h-682.666v-34.132zM725.335 422.408h-512.001v-34.132h512.001v34.132zM691.2 217.6h204.8v34.132h-204.8v-34.132zM349.865 217.6h34.135v34.132h-34.135v-34.132zM418.135 217.6h34.132v34.132h-34.132v-34.132zM486.4 217.6h34.132v34.132h-34.132v-34.132zM554.665 217.6h34.135v34.132h-34.135v-34.132zM247.468 661.332h-34.134v-34.132h34.134v34.132zM315.732 661.332h-34.132v-34.132h34.132v34.132z" />
<glyph unicode="&#xe91b;" glyph-name="card-6" d="M947.2 294.4c0-122.54-99.328-221.868-221.868-221.868-122.537 0-221.865 99.328-221.865 221.868s99.328 221.868 221.865 221.868c122.54 0 221.868-99.328 221.868-221.868zM128 277.332v512.001h750.932v-290.474c-42.803 32.22-95.88 51.54-153.6 51.54-46.387 0-89.836-12.526-127.35-34.132h-435.849v-34.135h389.562c-50.516-46.761-82.363-113.459-82.363-187.732 0-5.768 0.512-11.4 0.855-17.068h-342.188zM913.068 823.466h-887.468v-580.266h448.852c23.757-116.872 127.012-204.8 250.88-204.8 141.414 0 256 114.586 256 256 0 67.105-26.043 128-68.265 173.637v355.429zM810.67 686.932h-204.8v34.134h204.8v-34.134zM844.805 755.2h-273.068v-102.4h273.068v102.4zM844.805 584.532h-682.668v-34.132h682.668v34.132zM298.668 311.462h34.135v34.132h-34.135v-34.132zM366.938 311.462h34.132v34.132h-34.132v-34.132zM469.332 345.595h-34.132v-34.132h34.132v34.132zM196.271 755.196h-34.133v-34.134h34.133v34.134zM264.532 755.196h-34.132v-34.134h34.132v34.134zM870.131 378.88l-24.133 24.133-168.924-168.96-72.397 72.43-24.133-24.166 96.53-96.53 193.057 193.093z" />
<glyph unicode="&#xe91c;" glyph-name="card-7" d="M810.67 686.932h-204.8v34.134h204.8v-34.134zM844.805 755.2h-273.068v-102.4h273.068v102.4zM298.668 311.462h34.135v34.132h-34.135v-34.132zM366.938 311.462h34.132v34.132h-34.132v-34.132zM435.2 311.462h34.132v34.132h-34.132v-34.132zM196.271 755.196h-34.133v-34.134h34.133v34.134zM264.532 755.196h-34.132v-34.134h34.132v34.134zM947.2 72.532h-375.468v307.2h375.468v-307.2zM640 448c0 65.876 53.588 119.468 119.468 119.468 65.876 0 119.465-53.591 119.465-119.468v-34.132h-238.932v34.132zM128 277.332v512.001h750.932v-245.863c-9.83 12.255-21.025 23.383-34.132 32.189v8.873h-16.351c-20.82 10.547-44.065 17.068-68.982 17.068-24.919 0-48.164-6.52-68.984-17.068h-528.35v-34.132h483.601c-9.252-10.24-16.965-21.676-23.212-34.132h-460.39v-34.135h447.83c-2.491-10.99-4.096-22.356-4.096-34.132v-34.132h-68.268v-68.268h-34.132v-34.132h34.132v-34.135h-409.6zM913.068 413.868v409.599h-887.468v-580.266h512v-204.8h443.732v375.468h-68.265zM810.668 260.268c0 28.262-22.938 51.2-51.2 51.2s-51.2-22.938-51.2-51.2c0-22.257 14.303-40.996 34.135-48.061v-71.406h34.132v71.406c19.832 7.066 34.132 25.805 34.132 48.061z" />
<glyph unicode="&#xe91d;" glyph-name="card-8" d="M92.193 208.929l155.137 664.816 664.783-155.102-155.103-664.85-664.817 155.136zM544.837 68.268l237.67-55.468 12.936 55.468h96.256v412.672l61.407 263.201-61.407 14.302v94.891h-406.7l-263.166 61.406-14.337-61.406h-100.863v-432.334l-55.433-237.532 55.433-12.938v-102.262h438.204zM550.367 716.808c-37.683 0-68.268-30.583-68.268-68.266s30.584-68.268 68.268-68.268c37.683 0 68.268 30.584 68.268 68.268s-30.584 68.266-68.268 68.266z" />
<glyph unicode="&#xe91e;" glyph-name="card-9" d="M593.024 678.405c0 37.682-30.559 68.266-68.268 68.266-37.706 0-68.265-30.584-68.265-68.266s30.559-68.268 68.265-68.268c37.709 0 68.268 30.584 68.268 68.268zM746.627-4.268c-122.532 0-221.868 99.328-221.868 221.868s99.336 221.868 221.868 221.868c122.532 0 221.865-99.328 221.865-221.868s-99.333-221.868-221.865-221.868zM66.587 238.797l155.146 664.815 664.761-155.102-66.642-285.662c-23.229 6.93-47.759 10.752-73.226 10.752-141.402 0-256-114.586-256-256 0-28.262 4.762-55.398 13.24-80.827l-437.279 102.024zM866.092 443.937v66.867l61.399 263.203-61.399 14.302v94.891h-406.692l-263.174 61.406-14.333-61.406h-100.867v-432.333l-55.426-237.535 55.426-12.936v-102.264l439.399-0.271c42.959-81.034 128.108-136.261 226.202-136.261 141.399 0 256 114.586 256 256 0 98.235-55.375 183.398-136.535 226.337zM698.358 157.251l-72.399 72.433-24.133-24.166 96.532-96.53 193.068 193.093-24.131 24.131-168.937-168.96z" />
<glyph unicode="&#xe91f;" glyph-name="card-10" d="M110.933 746.671h819.199v-614.401h-819.199v614.401zM76.8 98.138h887.468v682.666h-887.468v-682.666zM554.668 576.013h273.068v34.132h-273.068v-34.132zM554.668 473.613h273.068v34.132h-273.068v-34.132zM554.668 371.213h273.068v34.132h-273.068v-34.132zM554.668 268.813h170.668v34.132h-170.668v-34.132zM349.868 610.143c37.65 0 68.268-30.618 68.268-68.268 0-37.683-30.618-68.268-68.268-68.268-37.624 0-68.265 30.584-68.265 68.268 0 37.65 30.641 68.268 68.265 68.268zM349.868 439.475c56.525 0 102.4 45.875 102.4 102.4s-45.875 102.4-102.4 102.4c-56.53 0-102.399-45.875-102.399-102.4s45.869-102.4 102.399-102.4zM452.268 268.808h-204.8v102.4h204.8v-102.4zM452.268 405.343h-204.8c-18.866 0-34.134-15.258-34.134-34.135v-136.532h273.066v136.532c0 18.877-15.258 34.135-34.132 34.135z" />
<glyph unicode="&#xe920;" glyph-name="card-11" d="M776.532 721.071h-273.068v-34.133h273.068v34.133zM776.532 618.67h-273.068v-34.132h273.068v34.132zM298.668 721.067c37.65 0 68.268-30.617 68.268-68.267 0-37.683-30.618-68.268-68.268-68.268-37.647 0-68.265 30.584-68.265 68.268 0 37.65 30.618 68.267 68.265 68.267zM298.668 550.4c56.525 0 102.4 45.875 102.4 102.4s-45.875 102.4-102.4 102.4c-56.524 0-102.399-45.875-102.399-102.4s45.875-102.4 102.399-102.4zM401.068 379.732h-204.8v102.4h204.8v-102.4zM401.068 516.268h-204.8c-18.876 0-34.134-15.258-34.134-34.135v-136.532h273.066v136.532c0 18.877-15.258 34.135-34.132 34.135zM725.332 72.532c-122.537 0-221.865 99.328-221.865 221.868s99.328 221.868 221.865 221.868c122.54 0 221.868-99.328 221.868-221.868s-99.328-221.868-221.868-221.868zM59.733 243.2v614.4h819.199v-358.74c-42.803 32.22-95.88 51.54-153.6 51.54-46.42 0-89.838-12.526-127.35-34.132h-94.515v-34.135h48.23c-50.519-46.761-82.365-113.423-82.365-187.732 0-17.544 1.777-34.68 5.12-51.2h-414.719zM913.068 468.037v423.696h-887.468v-682.666h458.616c35.19-99.364 129.672-170.668 241.116-170.668 141.414 0 256 114.586 256 256 0 67.105-26.043 128-68.265 173.637zM870.129 378.88l-24.133 24.131-168.927-168.96-72.397 72.433-24.131-24.166 96.527-96.53 193.060 193.093z" />
<glyph unicode="&#xe921;" glyph-name="cart" d="M916.992 738.137l-124.383-375.467h-545.143v375.467h669.525zM76.8 874.671v-34.134h136.533v-614.4h591.293v34.132h-557.159v68.268h569.754l147.046 443.733h-716.801v102.4h-170.667zM384 89.6c0-37.683-30.582-68.268-68.265-68.268s-68.267 30.584-68.267 68.268c0 37.683 30.584 68.268 68.267 68.268s68.265-30.584 68.265-68.268zM213.334 89.6c0-56.558 45.84-102.4 102.401-102.4 56.558 0 102.4 45.842 102.4 102.4s-45.842 102.4-102.4 102.4c-56.561 0-102.401-45.842-102.401-102.4zM736.358 21.332c-37.647 0-68.265 30.584-68.265 68.268s30.618 68.268 68.265 68.268c37.683 0 68.268-30.584 68.268-68.268s-30.584-68.268-68.268-68.268zM736.358 192c-56.558 0-102.4-45.842-102.4-102.4s45.842-102.4 102.4-102.4c56.561 0 102.4 45.842 102.4 102.4s-45.839 102.4-102.4 102.4z" />
<glyph unicode="&#xe922;" glyph-name="cash-1" d="M725.332 576.005h139.668c-1.91-5.361-3.133-11.059-3.133-17.068 0-28.262 22.932-51.2 51.2-51.2 6.001 0 11.707 1.229 17.065 3.141v-279.347c-5.358 1.91-11.064 3.139-17.065 3.139-28.268 0-51.2-22.938-51.2-51.2 0-6.006 1.224-11.707 3.133-17.065h-139.668v409.6zM349.868 132.27v477.868h341.332v-477.868h-341.332zM176.067 166.405c1.908 5.358 3.133 11.059 3.133 17.065 0 28.262-22.934 51.2-51.2 51.2-6.001 0-11.708-1.229-17.067-3.139v279.347c5.359-1.912 11.066-3.141 17.067-3.141 28.266 0 51.2 22.938 51.2 51.2 0 6.008-1.225 11.707-3.133 17.068h139.666v-409.6h-139.666zM376.535 746.671h288l25.6-102.401h-339.2l25.6 102.401zM964.268 610.138h-238.935v34.132h204.8v34.135h-213.332l-8.532 34.132h187.732v34.134h-196.268l-8.532 34.133h-341.332l-8.535-34.133h-196.266v-34.134h187.733l-8.532-34.132h-213.334v-34.135h204.799v-34.132h-238.932v-477.868h238.932v-34.132h409.6v34.132h238.935v477.868zM525.335 357.688c6.308-2.048 12.198-4.268 17.667-6.692 5.44-2.422 9.869-5.427 13.24-8.975 3.359-3.551 5.652-7.818 6.868-12.767 1.183-4.984 0.824-11.128-1.134-18.501-2.214-8.156-5.307-15.188-9.308-21.161-3.932-5.975-8.758-10.924-14.267-14.884-5.507-3.924-11.507-6.927-18.068-8.942-6.533-2.048-13.373-3.346-20.598-3.822l25.6 95.744zM498.977 403.052c-4.736 2.286-8.643 5.018-11.668 8.225-3.174 3.141-5.174 7.066-6.001 11.809-0.906 4.71-0.507 10.342 1.295 16.965 3.866 14.472 11.064 25.498 21.599 32.973 10.534 7.508 22.067 11.912 34.601 13.176l-23.892-89.26c-5.908 1.774-11.241 3.822-15.933 6.111zM408.335 321.062c-5.066-26.693-2.132-47.616 8.758-62.771 10.975-15.086 28.815-23.928 53.55-26.452l-8.402-31.301h20.987l8.399 31.301c12.483 0.955 24.333 3.548 35.615 7.611 11.226 4.060 21.522 9.592 30.733 16.556 9.293 7.030 17.293 15.36 24.092 25.019 6.802 9.659 11.827 20.685 15.176 33.178 3.092 11.674 3.561 21.742 1.4 30.139-2.217 8.364-5.75 15.36-10.639 20.959-4.869 5.599-10.268 9.966-16.269 13.14-6.001 3.21-11.4 5.427-16.159 6.692l-21.24 6.108 25.201 93.798c22.2-4.334 32.466-19.080 30.797-44.237h32.468c0.868 22.356-3.133 39.903-11.868 52.634-8.799 12.733-23.132 20.344-43.067 22.904l6.799 25.531h-20.997l-6.707-25.157c-11.095-0.783-21.985-3.208-32.653-7.268-10.639-4.063-20.375-9.592-29.215-16.591-8.865-6.996-16.627-15.222-23.201-24.814-6.625-9.487-11.492-20.001-14.556-31.401-3-11.231-4.001-20.754-3.028-28.605 0.893-7.885 3.919-14.574 8.891-20.070 5.002-5.46 11.909-10.138 20.669-14.095 8.707-3.927 19.374-7.578 31.933-10.854l-27.067-101.069c-14.6 2.56-25.6 8.771-32.96 18.67-7.439 9.933-9.001 23.416-4.972 40.448h-32.468z" />
<glyph unicode="&#xe923;" glyph-name="cash-2" d="M438.1 507.866c-5.906 1.774-11.231 3.822-15.941 6.111-4.744 2.286-8.635 5.018-11.674 8.225-3.141 3.141-5.153 7.066-5.972 11.809-0.922 4.71-0.512 10.342 1.298 16.965 3.855 14.472 11.057 25.498 21.571 32.973 10.547 7.508 22.085 11.912 34.611 13.176l-23.892-89.26zM466.191 461.921c5.427-2.422 9.864-5.427 13.243-8.975 3.379-3.551 5.668-7.818 6.861-12.767 1.196-4.984 0.822-11.128-1.124-18.501-2.22-8.156-5.292-15.188-9.318-21.161-3.927-5.975-8.74-10.924-14.269-14.884-5.496-3.924-11.469-6.927-18.056-8.942-6.52-2.048-13.348-3.346-20.582-3.822l25.6 95.744c6.28-2.048 12.186-4.268 17.646-6.692zM513.533 551.726h32.461c0.855 22.359-3.139 39.903-11.878 52.634-8.771 12.733-23.107 20.344-43.041 22.904l6.792 25.531h-20.992l-6.723-25.155c-11.095-0.786-21.983-3.21-32.666-7.27-10.616-4.063-20.344-9.592-29.184-16.589-8.876-6.999-16.625-15.224-23.212-24.814-6.623-9.49-11.502-20.004-14.574-31.404-2.97-11.231-3.994-20.754-3.005-28.605 0.888-7.885 3.927-14.574 8.876-20.070 5.018-5.46 11.914-10.138 20.685-14.095 8.704-3.927 19.354-7.578 31.916-10.854l-27.069-101.069c-14.574 2.56-25.6 8.771-32.937 18.67-7.442 9.933-9.011 23.416-4.984 40.448h-32.463c-5.066-26.693-2.135-47.616 8.758-62.771 10.975-15.086 28.792-23.928 53.537-26.452l-8.397-31.301h20.992l8.399 31.301c12.493 0.955 24.335 3.548 35.599 7.611 11.231 4.063 21.537 9.592 30.753 16.556 9.285 7.030 17.308 15.36 24.1 25.019s11.809 20.685 15.155 33.178c3.105 11.674 3.584 21.742 1.398 30.139-2.184 8.364-5.732 15.36-10.614 20.959s-10.276 9.969-16.282 13.143c-6.008 3.208-11.4 5.425-16.179 6.689l-21.23 6.111 25.224 93.798c22.188-4.337 32.461-19.082 30.787-44.239zM768 72.532c-122.54 0-221.868 99.328-221.868 221.868s99.328 221.868 221.868 221.868c122.54 0 221.868-99.328 221.868-221.868s-99.328-221.868-221.868-221.868zM273.068 243.2v477.866h341.332v-222.207c-62.054-46.73-102.4-120.799-102.4-204.46 0-17.544 1.81-34.644 5.12-51.2h-244.052zM99.267 277.332c1.908 5.361 3.133 11.059 3.133 17.068 0 28.262-22.934 51.2-51.2 51.2-6.001 0-11.708-1.229-17.067-3.141v279.347c5.359-1.91 11.066-3.139 17.067-3.139 28.266 0 51.2 22.938 51.2 51.2 0 6.006-1.225 11.707-3.133 17.065h139.667v-409.6h-139.667zM299.735 857.6h288.008l25.6-102.4h-339.208l25.6 102.4zM788.206 686.932c-1.91-5.358-3.139-11.059-3.139-17.065 0-28.262 22.938-51.2 51.2-51.2 6.006 0 11.707 1.229 17.065 3.139v-86.287c-26.726 9.454-55.363 14.881-85.332 14.881-43.18 0-83.796-10.785-119.468-29.663v166.195h139.674zM887.468 520.737v200.329h-238.935v34.134h204.8v34.133h-213.332l-8.532 34.133h187.732v34.134h-196.268l-8.532 34.133h-341.332l-8.535-34.133h-196.266v-34.134h187.733l-8.533-34.133h-213.334v-34.133h204.8v-34.134h-238.933v-477.866h238.933v-34.132h287.948c35.192-99.364 129.708-170.668 241.119-170.668 141.414 0 256 114.619 256 256 0 98.202-55.365 183.398-136.532 226.337zM785.068 311.468v136.532h-34.135v-136.532h-136.532v-34.135h136.532v-136.532h34.135v136.532h136.532v34.135h-136.532z" />
<glyph unicode="&#xe924;" glyph-name="cash-3" d="M438.103 507.866c-5.906 1.774-11.231 3.822-15.941 6.111-4.744 2.286-8.635 5.018-11.674 8.225-3.139 3.141-5.153 7.066-5.972 11.809-0.922 4.71-0.512 10.342 1.298 16.965 3.855 14.472 11.057 25.498 21.571 32.973 10.547 7.508 22.085 11.912 34.611 13.176l-23.892-89.26zM466.194 461.921c5.427-2.422 9.864-5.427 13.243-8.975 3.379-3.551 5.668-7.818 6.861-12.767 1.196-4.984 0.822-11.128-1.124-18.501-2.22-8.156-5.292-15.188-9.318-21.161-3.927-5.975-8.74-10.924-14.269-14.884-5.496-3.924-11.469-6.927-18.056-8.942-6.52-2.048-13.345-3.346-20.582-3.822l25.6 95.744c6.28-2.048 12.186-4.268 17.646-6.692zM513.536 551.726h32.461c0.855 22.359-3.139 39.903-11.878 52.634-8.771 12.733-23.107 20.344-43.041 22.904l6.792 25.531h-20.992l-6.723-25.155c-11.095-0.786-21.983-3.21-32.666-7.27-10.616-4.063-20.344-9.592-29.184-16.589-8.876-6.999-16.625-15.224-23.212-24.814-6.623-9.49-11.502-20.004-14.574-31.404-2.97-11.231-3.994-20.754-3.003-28.605 0.886-7.885 3.924-14.574 8.873-20.070 5.018-5.46 11.912-10.138 20.685-14.095 8.704-3.927 19.354-7.578 31.916-10.854l-27.067-101.069c-14.577 2.56-25.603 8.771-32.94 18.67-7.442 9.933-9.011 23.416-4.984 40.448h-32.461c-5.084-26.693-2.15-47.616 8.773-62.771 10.957-15.086 28.774-23.928 53.522-26.452l-8.397-31.301h20.989l8.399 31.301c12.493 0.955 24.335 3.548 35.599 7.611 11.231 4.063 21.537 9.592 30.753 16.556 9.285 7.030 17.308 15.36 24.1 25.019s11.809 20.685 15.155 33.178c3.105 11.674 3.584 21.742 1.4 30.139-2.186 8.364-5.734 15.36-10.616 20.959s-10.276 9.969-16.282 13.143c-6.008 3.208-11.4 5.425-16.179 6.689l-21.23 6.111 25.224 93.798c22.188-4.337 32.461-19.082 30.787-44.239zM768 72.532c-122.54 0-221.868 99.328-221.868 221.868s99.328 221.868 221.868 221.868c122.54 0 221.868-99.328 221.868-221.868s-99.328-221.868-221.868-221.868zM273.068 243.2v477.866h341.332v-222.207c-62.054-46.73-102.4-120.799-102.4-204.46 0-17.544 1.81-34.644 5.12-51.2h-244.052zM99.26 277.332c1.911 5.361 3.14 11.059 3.14 17.068 0 28.262-22.938 51.2-51.2 51.2-6.008 0-11.708-1.229-17.067-3.141v279.347c5.359-1.91 11.059-3.139 17.067-3.139 28.262 0 51.2 22.938 51.2 51.2 0 6.006-1.229 11.707-3.14 17.065h139.674v-409.6h-139.674zM299.725 857.6h288.018l25.6-102.4h-339.218l25.6 102.4zM788.206 686.932c-1.91-5.358-3.139-11.059-3.139-17.065 0-28.262 22.938-51.2 51.2-51.2 6.006 0 11.707 1.229 17.065 3.139v-86.287c-26.726 9.454-55.363 14.881-85.332 14.881-43.18 0-83.796-10.785-119.468-29.663v166.195h139.674zM887.468 520.737v200.329h-238.935v34.134h204.8v34.133h-213.332l-8.532 34.133h187.732v34.134h-196.268l-8.532 34.133h-341.332l-8.535-34.133h-196.266v-34.134h187.733l-8.533-34.133h-213.334v-34.133h204.8v-34.134h-238.933v-477.866h238.933v-34.132h287.948c35.192-99.364 129.708-170.668 241.119-170.668 141.414 0 256 114.619 256 256 0 98.202-55.365 183.398-136.532 226.337zM614.4 311.47v-34.132h307.2v34.132h-307.2z" />
<glyph unicode="&#xe925;" glyph-name="cash-4" d="M438.103 507.866c-5.906 1.774-11.231 3.822-15.941 6.111-4.744 2.286-8.635 5.018-11.674 8.225-3.139 3.141-5.153 7.066-5.972 11.809-0.922 4.71-0.512 10.342 1.295 16.965 3.858 14.472 11.062 25.498 21.573 32.973 10.547 7.508 22.085 11.912 34.611 13.176l-23.892-89.26zM466.194 461.921c5.427-2.422 9.866-5.427 13.245-8.975 3.379-3.551 5.665-7.818 6.861-12.767 1.193-4.984 0.817-11.128-1.129-18.501-2.217-8.156-5.289-15.188-9.316-21.161-3.927-5.975-8.74-10.924-14.269-14.884-5.494-3.924-11.469-6.927-18.056-8.942-6.52-2.048-13.345-3.346-20.582-3.822l25.6 95.744c6.28-2.048 12.186-4.268 17.646-6.692zM513.539 551.726h32.461c0.852 22.359-3.141 39.903-11.878 52.634-8.773 12.733-23.109 20.344-43.044 22.904l6.794 25.531h-20.992l-6.725-25.155c-11.092-0.786-21.983-3.21-32.666-7.27-10.616-4.063-20.344-9.592-29.184-16.589-8.876-6.999-16.622-15.224-23.212-24.814-6.62-9.49-11.502-20.004-14.574-31.404-2.97-11.231-3.994-20.754-3.003-28.605 0.886-7.885 3.924-14.574 8.873-20.070 5.018-5.46 11.914-10.138 20.685-14.095 8.704-3.927 19.354-7.578 31.916-10.854l-27.067-101.069c-14.577 2.56-25.6 8.771-32.94 18.67-7.442 9.933-9.011 23.416-4.984 40.448h-32.461c-5.087-26.693-2.15-47.616 8.773-62.771 10.957-15.086 28.774-23.928 53.519-26.452l-8.394-31.301h20.992l8.397 31.301c12.493 0.955 24.335 3.548 35.599 7.611 11.231 4.063 21.54 9.592 30.756 16.556 9.283 7.030 17.306 15.36 24.097 25.019s11.809 20.685 15.155 33.178c3.105 11.674 3.584 21.742 1.398 30.139-2.184 8.364-5.732 15.36-10.614 20.959s-10.273 9.969-16.282 13.143c-6.008 3.208-11.4 5.425-16.179 6.689l-21.23 6.111 25.224 93.798c22.188-4.337 32.461-19.082 30.789-44.239zM768 72.532c-122.54 0-221.868 99.328-221.868 221.868s99.328 221.868 221.868 221.868c122.54 0 221.868-99.328 221.868-221.868s-99.328-221.868-221.868-221.868zM273.068 243.2v477.866h341.332v-222.207c-62.054-46.73-102.4-120.799-102.4-204.46 0-17.544 1.81-34.644 5.12-51.2h-244.052zM99.26 277.332c1.912 5.361 3.14 11.059 3.14 17.068 0 28.262-22.938 51.2-51.2 51.2-6.008 0-11.708-1.229-17.067-3.141v279.347c5.359-1.91 11.059-3.139 17.067-3.139 28.262 0 51.2 22.938 51.2 51.2 0 6.006-1.229 11.707-3.14 17.065h139.673v-409.6h-139.673zM299.725 857.6h288.018l25.6-102.4h-339.218l25.6 102.4zM788.206 686.932c-1.91-5.358-3.139-11.059-3.139-17.065 0-28.262 22.938-51.2 51.2-51.2 6.006 0 11.707 1.229 17.065 3.139v-86.287c-26.726 9.454-55.363 14.881-85.332 14.881-43.18 0-83.796-10.785-119.468-29.663v166.195h139.674zM887.468 520.737v200.329h-238.935v34.134h204.8v34.133h-213.332l-8.532 34.133h187.732v34.134h-196.268l-8.532 34.133h-341.332l-8.535-34.133h-196.266v-34.134h187.733l-8.533-34.133h-213.334v-34.133h204.8v-34.134h-238.933v-477.866h238.933v-34.132h287.948c35.192-99.364 129.708-170.668 241.119-170.668 141.414 0 256 114.619 256 256 0 98.202-55.365 183.398-136.532 226.337zM719.736 234.053l-72.399 72.43-24.131-24.166 96.53-96.53 193.057 193.093-24.133 24.133-168.924-168.96z" />
<glyph unicode="&#xe926;" glyph-name="cash-5" d="M150.46 148.58c1.912 5.358 3.14 11.059 3.14 17.065 0 28.262-22.938 51.2-51.2 51.2-6.008 0-11.708-1.226-17.067-3.139v279.347c5.359-1.912 11.059-3.141 17.067-3.141 28.262 0 51.2 22.938 51.2 51.2 0 6.008-1.229 11.707-3.14 17.068h139.673v-409.6h-139.673zM699.732 148.58v20.001l-34.132 34.135v-88.271h-341.332v429.604l-48.266 48.264h-224.801v-477.868h238.932v-34.132h409.6v34.132h54.136l-34.132 34.135h-20.004zM85.334 660.582v-34.132h156.536l-34.134 34.132h-122.403zM119.466 728.846v-34.134h54.136l-34.134 34.134h-20.002zM530.639 324.196c3.379-3.551 5.665-7.818 6.861-12.767 1.193-4.984 0.817-11.128-1.129-18.501-2.217-8.156-5.289-15.188-9.316-21.161-3.927-5.972-8.74-10.924-14.269-14.884-5.494-3.924-11.469-6.927-18.056-8.942-6.52-2.048-13.345-3.346-20.582-3.822l25.6 95.744c6.28-2.048 12.186-4.268 17.646-6.689 5.427-2.424 9.866-5.43 13.245-8.978zM473.362 385.226c-4.744 2.286-8.635 5.018-11.674 8.225-3.139 3.141-5.153 7.066-5.972 11.809-0.443 2.322-0.581 4.915-0.376 7.716l-25.669 25.702c-3.277-6.316-6.075-12.869-7.951-19.866-2.97-11.231-3.994-20.754-3.003-28.605 0.886-7.885 3.924-14.574 8.873-20.070 5.018-5.46 11.914-10.138 20.685-14.095 8.704-3.927 19.354-7.578 31.916-10.854l-27.067-101.069c-14.577 2.56-25.6 8.771-32.94 18.67-7.442 9.933-9.011 23.416-4.984 40.448h-32.461c-5.087-26.693-2.15-47.616 8.773-62.771 10.957-15.086 28.774-23.928 53.519-26.452l-8.394-31.301h20.992l8.397 31.301c12.493 0.955 24.335 3.548 35.599 7.611 11.231 4.063 21.54 9.592 30.756 16.556 9.283 7.030 17.306 15.36 24.097 25.019 6.792 9.661 11.809 20.685 15.155 33.178 0.033 0.102 0.033 0.172 0.033 0.274l-82.534 82.534c-5.837 1.774-11.126 3.789-15.77 6.042zM699.732 265.114v293.069h139.674c-1.91-5.358-3.139-11.059-3.139-17.068 0-28.262 22.938-51.2 51.2-51.2 6.006 0 11.707 1.229 17.065 3.141v-279.347c-5.358 1.912-11.059 3.141-17.065 3.141-28.262 0-51.2-22.938-51.2-51.2 0-6.008 1.229-11.709 3.139-17.068h-23.142l-116.531 116.531zM526.267 438.612l7.68 28.605c22.188-4.334 32.461-19.082 30.789-44.237h32.461c0.852 22.356-3.141 39.9-11.878 52.634-8.773 12.731-23.109 20.342-43.041 22.902l6.792 25.533h-20.992l-6.725-25.157c-11.092-0.786-21.98-3.208-32.666-7.27-3.651-1.4-7.066-3.208-10.511-4.948l-105.644 105.641h293.069v-293.069l-139.333 139.366zM499.679 465.17c4.403 1.364 8.806 2.729 13.517 3.208l-3.517-13.21-9.999 10.002zM307.2 694.715l-7.406-29.66-29.663 29.66h37.069zM638.943 728.849l25.6-102.399h-326.144l-10.481 10.445 23.007 91.954h288.018zM850.399 114.45h88.269v477.865h-238.935v34.135h204.8v34.132h-213.332l-8.532 34.132h187.732v34.134h-196.268l-8.532 34.133h-341.332l-8.535-34.133h-79.735l-151.381 151.382-24.167-24.133 868.966-868.898 24.133 24.133-103.15 103.117z" />
<glyph unicode="&#xe927;" glyph-name="cash-6" d="M128 72.532v102.4h68.267v-102.4h-68.267zM59.733 209.068v102.4h68.267v-102.4h-68.267zM93.867 448h68.266v-102.4h-68.266v102.4zM128 584.532h68.267v-102.4h-68.267v102.4zM162.133 721.066h68.267v-102.399h-68.267v102.399zM93.867 755.2v102.4h68.266v-102.4h-68.266zM469.332 857.6v-102.4h-273.066v102.4h273.066zM571.732 857.6v-102.4h-68.265v102.4h68.265zM640 721.066v-102.399h-68.268v102.399h68.268zM264.532 618.668v102.399h273.068v-102.399h-273.068zM503.468 83.149v-10.616h-273.068v102.4h203.059c-5.496 11.026-10.309 22.392-14.472 34.135h-256.854v102.4h238.934c0 11.535 0.75 22.902 2.012 34.132h-206.813v102.4h237.192c5.906 11.776 12.288 23.278 19.525 34.132h-222.584v102.4h273.068v-44.749c10.785 9.695 22.049 18.842 34.132 26.931v17.818h30.584c32.425 16.727 68.129 27.922 105.948 32.12v138.547h-68.265v136.533h-546.134v-170.667h68.267v-102.399h-34.133v-136.535h-34.134v-136.532h-34.133v-170.668h68.267v-136.532h474.318c-23.552 12.116-45.194 27.205-64.717 44.749zM708.268 72.532c-131.722 0-238.935 107.18-238.935 238.935 0 131.753 107.213 238.932 238.935 238.932 131.72 0 238.932-107.18 238.932-238.932 0-131.756-107.213-238.935-238.932-238.935zM708.268 584.532c-150.835 0-273.068-122.266-273.068-273.065 0-150.802 122.232-273.068 273.068-273.068s273.065 122.266 273.065 273.068c0 150.799-122.23 273.065-273.065 273.065zM677.414 223.027c-10.89 0.922-19.592 3.994-26.181 9.216-6.587 5.256-11.366 11.845-14.3 19.866-2.936 8.020-4.201 17.101-3.791 27.272 0.445 10.138 2.015 20.48 4.813 30.925 3.072 11.402 7.101 22.426 12.083 33.042 4.984 10.616 11.059 20.14 18.125 28.639 7.032 8.463 15.26 15.462 24.783 20.992 9.487 5.563 20.411 9.078 32.835 10.65l-48.366-180.6zM810.637 417.69c-6.349 6.623-14.438 11.64-24.133 15.020s-20.856 5.256-33.416 5.563l11.776 43.86h-18.022l-11.776-43.86c-17.58-1.229-33.861-5.46-48.878-12.698-15.020-7.27-28.47-16.658-40.312-28.193-11.914-11.538-22.016-24.781-30.344-39.731-8.294-14.917-14.679-30.687-19.116-47.345-4.541-16.929-6.451-32.732-5.768-47.342 0.681-14.61 4.027-27.341 9.897-38.093 5.906-10.785 14.438-19.354 25.669-25.633 11.228-6.316 25.26-9.797 42.017-10.412l-12.869-48.026h18.058l12.833 48.026c14.474 0 28.024 2.629 40.686 7.852 12.631 5.256 24.1 12.252 34.545 21.025 10.309 8.773 19.284 18.706 26.862 29.798s13.517 22.323 17.851 33.723h-39.286c-6.656-15.734-16.010-28.943-27.991-39.731-11.912-10.785-26.452-16.929-43.484-18.465l48.399 180.6c14.61-0.65 25.193-5.189 31.916-13.619 6.656-8.499 9.626-19.799 8.876-33.964h40.207c1.879 13.824 1.572 25.94-0.922 36.25-2.491 10.309-6.894 18.772-13.276 25.395z" />
<glyph unicode="&#xe928;" glyph-name="cash-8" d="M440.868 373.281c-20.856 15.872-54.444 26.591-100.695 32.087-19.489 2.081-33.723 5.632-42.701 10.614-9.011 5.018-13.481 10.65-13.481 16.965-0.376 8.635 4.367 16.11 14.3 22.426 9.969 6.28 22.392 9.421 37.307 9.421 25.6-0.274 44.547-8.123 56.765-23.585l51.028 17.715c-17.92 23.209-43.246 37.545-75.707 43.348v31.060h-52.191v-29.32c-24.302-2.798-44.613-10.412-60.757-23.245-20.651-16.417-30.617-34.304-29.832-53.727 0-16.315 9.727-30.275 29.252-41.948 19.525-11.709 47.616-19.354 84.311-23.040 27.169-3.379 46.077-9.114 56.796-17.137 10.683-7.987 15.872-16.041 15.462-24.2 0-12.050-6.689-22.664-20.104-31.675-13.348-9.080-29.22-13.45-47.549-13.21-31.777 0-56.591 12.731-74.58 38.195l-57.924-20.106c24.098-33.928 59.496-52.905 104.926-58.708v-43.213h52.191v42.12c25.874 3.21 48.333 11.333 67.141 24.612 24.847 17.475 37.274 37.478 37.274 60.006 0 20.48-10.445 38.671-31.232 54.543zM768 21.332c-122.54 0-221.868 99.328-221.868 221.868s99.328 221.868 221.868 221.868c122.54 0 221.868-99.328 221.868-221.868s-99.328-221.868-221.868-221.868zM133.188 114.074l-23.108 8.159-15.122-19.287c-6.622-8.463-16.349-13.345-26.692-13.345-18.842 0-34.134 15.327-34.134 34.132 0 10.616 4.916 18.194 9.012 22.733l15.188 16.727-9.455 20.547c-9.933 21.471-14.745 46.456-14.745 76.529 0 168.822 87.792 245.658 165.308 313.48 45.909 40.108 89.667 78.438 103.355 130.253h77.074c13.686-51.814 57.48-90.145 103.355-130.253 42.632-37.307 88.305-77.414 120.832-134.008-56.218-46.932-92.058-117.555-92.058-196.539 0-47.411 13.143-91.681 35.602-129.741-47.173-16.248-112.709-23.859-206.269-23.859-94.753 0-160.904 7.782-208.144 24.474zM768 499.2c-50.278 0-96.973-14.676-136.532-39.698-78.95 134.111-221.868 179.781-221.868 278.631h34.132v34.133h-34.132l34.132 136.534h-102.4l-15.155-60.655-18.977 94.788h-68.267l34.134-170.667h-34.134v-34.133h34.134c0-136.533-273.068-170.666-273.068-477.866 0-36.216 6.383-65.946 17.852-90.865-10.991-12.116-17.852-27.988-17.852-45.67 0-37.716 30.584-68.265 68.267-68.265 21.845 0 41.062 10.478 53.555 26.383 56.934-20.070 131.55-26.383 219.511-26.383s162.542 6.313 219.476 26.383c7.135-9.044 16.522-15.974 27.205-20.582 46.252-45.773 109.773-74.068 179.986-74.068 141.414 0 256 114.586 256 256s-114.586 256-256 256zM785.068 396.8h-34.135v-136.532h-136.532v-34.135h136.532v-136.532h34.135v136.532h136.532v34.135h-136.532v136.532z" />
<glyph unicode="&#xe929;" glyph-name="cash-9" d="M238.217 12.8c21.846 0 41.064 10.478 53.557 26.386 56.934-20.070 131.548-26.386 219.51-26.386s162.542 6.316 219.476 26.386c12.526-15.908 31.711-26.386 53.591-26.386 33.28 0 60.928 23.859 66.97 55.432l-55.57 55.57-1.467-3.277 15.191-16.724c4.060-4.541 9.009-12.119 9.009-22.733 0-18.808-15.327-34.135-34.132-34.135-10.342 0-20.070 4.882-26.726 13.348l-15.089 19.284-23.107-8.159c-47.273-16.691-113.393-24.474-208.146-24.474s-160.906 7.782-208.146 24.474l-23.107 8.159-15.122-19.284c-6.62-8.466-16.35-13.348-26.692-13.348-18.842 0-34.133 15.327-34.133 34.135 0 10.614 4.914 18.191 9.010 22.733l15.19 16.724-9.453 20.549c-9.933 21.468-14.747 46.454-14.747 76.526 0 168.824 87.79 245.658 165.307 313.48 3.412 2.97 6.761 5.939 10.173 8.909l-24.2 24.202c-79.839-70.111-185.414-155.546-185.414-346.591 0-36.216 6.385-65.946 17.853-90.862-10.991-12.119-17.853-27.991-17.853-45.67 0-37.719 30.584-68.268 68.267-68.268zM510.129 362.706c-19.489 2.081-33.723 5.632-42.701 10.614-9.011 5.018-13.484 10.65-13.484 16.965-0.374 8.635 4.367 16.11 14.3 22.426 8.192 5.153 18.468 7.68 30.003 8.602l-35.666 35.668c-14.438-4.096-27.139-10.307-37.891-18.875-20.649-16.417-30.618-34.304-29.832-53.727 0-16.315 9.728-30.275 29.253-41.948 19.523-11.709 47.616-19.354 84.308-23.040 27.172-3.379 46.080-9.114 56.796-17.137 10.685-7.987 15.875-16.041 15.465-24.2 0-12.050-6.689-22.664-20.104-31.675-13.345-9.080-29.22-13.45-47.549-13.21-31.78 0-56.591 12.731-74.58 38.195l-57.923-20.106c24.097-33.928 59.492-52.905 104.922-58.708v-43.213h52.191v42.12c25.874 3.21 48.333 11.333 67.141 24.612 24.847 17.475 37.271 37.476 37.271 60.004 0 0.548-0.202 1.060-0.236 1.674l-73.149 73.147c-16.522 5.189-35.976 9.114-58.537 11.812zM472.748 661.332h77.071c13.688-51.814 57.482-90.145 103.357-130.253 77.517-67.822 165.307-144.655 165.307-313.48 0-6.656-1.126-12.186-1.603-18.399l-213.573 213.573 10.035 3.482c-12.698 16.453-29.389 28.16-49.357 35.84l-26.353 26.35v12.221h-12.219l-96.563 96.563c20.378 22.39 36.557 46.318 43.896 74.102zM945.766 22.049l24.133 24.166-121.889 121.856c3.003 15.053 4.605 31.473 4.605 49.528 0 307.2-273.065 341.332-273.065 477.868h34.132v34.132h-34.132l34.132 136.533h-102.4l-15.158-60.655-18.975 94.788h-68.268l34.132-170.666h-34.132v-34.132h34.132c0-32.018-15.36-58.404-38.4-84.004l-303.649 303.685-24.167-24.132 868.966-868.967z" />
<glyph unicode="&#xe92a;" glyph-name="cash-10" d="M228.079 124.012c-9.933 21.468-14.746 46.454-14.746 76.526 0 168.824 87.792 245.658 165.273 313.48 45.944 40.108 89.669 78.438 103.391 130.253h77.074c13.652-51.814 57.48-90.145 103.322-130.253 77.55-67.822 165.34-144.655 165.34-313.48 0-30.072-4.813-55.058-14.746-76.526l-9.454-20.549 15.188-16.724c4.063-4.541 9.011-12.119 9.011-22.733 0-18.808-15.324-34.135-34.132-34.135-10.342 0-20.070 4.882-26.726 13.348l-15.086 19.284-23.109-8.159c-47.276-16.691-113.426-24.474-208.146-24.474-94.787 0-160.937 7.782-208.143 24.474l-23.109 8.159-15.155-19.284c-6.587-8.466-16.315-13.348-26.658-13.348-18.876 0-34.134 15.327-34.134 34.135 0 10.614 4.881 18.191 9.011 22.733l15.189 16.724-9.455 20.549zM247.467-4.262c21.812 0 41.063 10.478 53.52 26.386 56.934-20.070 131.551-26.386 219.546-26.386 87.928 0 162.545 6.316 219.479 26.386 12.526-15.908 31.708-26.386 53.588-26.386 37.683 0 68.268 30.548 68.268 68.268 0 17.679-6.861 33.551-17.853 45.668 11.469 24.919 17.853 54.648 17.853 90.865 0 307.2-273.068 341.332-273.068 477.868h34.132v34.132h-34.132l34.132 136.534h-102.4l-15.155-60.655-18.977 94.788h-68.268l34.135-170.667h-34.135v-34.132h34.135c0-136.535-273.068-170.668-273.068-477.868 0-36.216 6.349-65.946 17.852-90.865-10.991-12.116-17.852-27.988-17.852-45.668 0-37.719 30.549-68.268 68.267-68.268zM496.468 98.138h47.718v96.973h112.881v48.812h-112.881l112.095 161.416h-58.88l-76.664-111.002-77.55 111.002h-58.778l112.059-161.416h-112.468v-48.812h112.468v-96.973z" />
<glyph unicode="&#xe92b;" glyph-name="cash-11" d="M440.868 373.281c-20.856 15.872-54.444 26.591-100.695 32.087-19.489 2.081-33.723 5.632-42.701 10.614-9.011 5.018-13.481 10.65-13.481 16.965-0.376 8.635 4.367 16.11 14.3 22.426 9.969 6.28 22.392 9.421 37.307 9.421 25.6-0.274 44.547-8.123 56.765-23.585l51.028 17.715c-17.92 23.209-43.246 37.545-75.707 43.348v31.060h-52.191v-29.32c-24.302-2.798-44.613-10.412-60.757-23.245-20.651-16.417-30.617-34.304-29.832-53.727 0-16.315 9.727-30.275 29.252-41.948 19.525-11.709 47.616-19.354 84.311-23.040 27.169-3.379 46.077-9.114 56.796-17.137 10.683-7.987 15.872-16.041 15.462-24.2 0-12.050-6.689-22.664-20.104-31.675-13.348-9.080-29.22-13.45-47.549-13.21-31.777 0-56.591 12.731-74.58 38.195l-57.924-20.106c24.098-33.928 59.496-52.905 104.926-58.708v-43.213h52.191v42.12c25.874 3.21 48.333 11.333 67.141 24.612 24.847 17.475 37.274 37.478 37.274 60.006 0 20.48-10.445 38.671-31.232 54.543zM768 21.332c-122.54 0-221.868 99.328-221.868 221.868s99.328 221.868 221.868 221.868c122.54 0 221.868-99.328 221.868-221.868s-99.328-221.868-221.868-221.868zM133.188 114.074l-23.108 8.159-15.122-19.287c-6.622-8.463-16.349-13.345-26.692-13.345-18.842 0-34.134 15.327-34.134 34.132 0 10.616 4.916 18.194 9.012 22.733l15.188 16.727-9.455 20.547c-9.933 21.471-14.745 46.456-14.745 76.529 0 168.822 87.792 245.658 165.308 313.48 45.909 40.108 89.667 78.438 103.355 130.253h77.074c13.686-51.814 57.48-90.145 103.355-130.253 42.632-37.307 88.305-77.414 120.832-134.008-56.218-46.932-92.058-117.555-92.058-196.539 0-47.411 13.143-91.681 35.602-129.741-47.173-16.248-112.709-23.859-206.269-23.859-94.753 0-160.904 7.782-208.144 24.474zM768 499.2c-50.278 0-96.973-14.676-136.532-39.698-78.95 134.111-221.868 179.781-221.868 278.631h34.132v34.133h-34.132l34.132 136.534h-102.4l-15.155-60.655-18.977 94.788h-68.267l34.134-170.667h-34.134v-34.133h34.134c0-136.533-273.068-170.666-273.068-477.866 0-36.216 6.383-65.946 17.852-90.865-10.991-12.116-17.852-27.988-17.852-45.67 0-37.716 30.584-68.265 68.267-68.265 21.845 0 41.062 10.478 53.555 26.383 56.934-20.070 131.55-26.383 219.511-26.383s162.542 6.313 219.476 26.383c7.135-9.044 16.522-15.974 27.205-20.582 46.252-45.773 109.773-74.068 179.986-74.068 141.414 0 256 114.586 256 256s-114.586 256-256 256zM614.4 260.27v-34.132h307.2v34.132h-307.2z" />
<glyph unicode="&#xe92c;" glyph-name="cash-12" d="M228.065 115.474c-9.933 21.468-14.732 46.454-14.732 76.526 0 168.824 87.802 245.658 165.268 313.48 45.932 40.108 89.667 78.438 103.398 130.253h77.066c13.668-51.814 57.467-90.145 103.337-130.253 77.53-67.822 165.33-144.655 165.33-313.48 0-30.072-4.797-55.058-14.73-76.526l-9.469-20.549 15.199-16.724c4.070-4.541 9.001-12.119 9.001-22.733 0-18.808-15.332-34.135-34.132-34.135-10.332 0-20.068 4.882-26.734 13.348l-15.066 19.284-23.132-8.159c-47.268-16.691-113.4-24.474-208.136-24.474-94.797 0-160.932 7.782-208.133 24.474l-23.132 8.159-15.132-19.284c-6.602-8.466-16.335-13.348-26.668-13.348-18.866 0-34.134 15.327-34.134 34.135 0 10.614 4.868 18.191 9.001 22.733l15.2 16.724-9.469 20.549zM247.467-12.8c21.802 0 41.066 10.478 53.535 26.386 56.929-20.070 131.533-26.386 219.53-26.386 87.936 0 162.534 6.316 219.469 26.386 12.534-15.908 31.734-26.386 53.599-26.386 37.665 0 68.268 30.548 68.268 68.268 0 17.679-6.868 33.551-17.866 45.67 11.466 24.916 17.866 54.646 17.866 90.862 0 307.2-273.068 341.332-273.068 477.868h34.132v34.132h-34.132l34.132 136.533h-102.4l-15.158-60.655-18.975 94.788h-68.268l34.135-170.666h-34.135v-34.132h34.135c0-136.535-273.068-170.668-273.068-477.868 0-36.216 6.332-65.946 17.865-90.862-10.998-12.119-17.865-27.991-17.865-45.67 0-37.719 30.532-68.268 68.267-68.268zM657.068 168.658h-180.068c19.067 14.336 29.468 34.678 31.132 61.030v35.259h72.868v45.396h-76.065v37.581c-0.399 10.412 3.331 19.594 11.333 27.546 8.064 7.921 20.065 12.083 36.132 12.39 24.668-0.648 40.535-7.951 47.468-22.049l56.599 20.206c-19.53 29.015-54.467 43.999-104.732 44.92-36.398-0.34-64.333-9.216-83.868-26.591-19.53-17.408-29.463-38.671-29.932-63.726v-30.277h-27.267v-45.396h27.267v-24.748c-1.733-27.817-17.334-51.676-46.799-71.542h-7.135v-44.92h273.068v44.92z" />
<glyph unicode="&#xe92d;" glyph-name="cash-13" d="M517.292 420.959c8.876-2.834 17.101-5.906 24.781-9.318 7.578-3.379 13.722-7.578 18.465-12.493 4.746-5.018 7.921-10.99 9.661-17.92 1.672-6.963 1.16-15.565-1.605-25.874-3.072-11.4-7.406-21.332-13.005-29.66-5.665-8.364-12.321-15.293-20.001-20.823-7.713-5.494-16.113-9.692-25.26-12.526-9.114-2.867-18.808-4.641-28.946-5.325l35.909 133.939zM480.394 484.549c-6.589 3.141-12.050 6.996-16.384 11.502-4.334 4.403-7.135 9.933-8.397 16.522-1.265 6.554-0.65 14.541 1.843 23.757 5.427 20.308 15.532 35.668 30.241 46.216 14.746 10.445 30.892 16.589 48.435 18.363l-33.452-124.892c-8.225 2.458-15.667 5.325-22.287 8.532zM353.521 369.759c-7.168-37.376-3.039-66.662 12.288-87.892 15.327-21.13 40.243-33.521 74.924-37.069l-11.743-43.761h29.389l11.674 43.761c17.544 1.398 34.099 4.982 49.869 10.716 15.77 5.668 30.106 13.381 43.077 23.212 12.936 9.761 24.2 21.402 33.654 34.988 9.49 13.481 16.589 28.979 21.266 46.42 4.367 16.351 5.051 30.446 1.946 42.156-3.072 11.776-8.023 21.537-14.781 29.389-6.825 7.816-14.436 13.993-22.833 18.432-8.433 4.436-15.977 7.542-22.597 9.318l-29.765 8.566 35.226 131.346c31.096-6.075 45.499-26.726 43.213-61.952h45.363c1.229 31.301-4.265 55.875-16.553 73.728-12.324 17.748-32.428 28.434-60.349 31.949l9.626 35.84h-29.356l-9.454-35.226c-15.598-1.057-30.822-4.506-45.704-10.171-14.848-5.701-28.536-13.45-40.893-23.212-12.424-9.83-23.278-21.368-32.527-34.714-9.318-13.345-16.077-28.024-20.413-44.032-4.163-15.7-5.596-29.048-4.301-40.108 1.331-10.99 5.496-20.342 12.529-28.022 7.030-7.647 16.658-14.2 28.877-19.73 12.186-5.496 27.136-10.58 44.749-15.258l-37.888-141.414c-20.411 3.515-35.771 12.255-46.080 26.112-10.376 13.893-12.698 32.768-7.032 56.627h-45.396zM819.986 307.438l-15.905-169.439 154.691 70.963-56.456 40.074c79.839 167.798 45.942 372.221-86.564 504.694-156.57 156.57-401.679 170.94-575.145 44.169l24.405-24.406c159.846 113.698 383.386 99.363 526.61-43.895 120.901-120.9 152.986-306.723 82.501-460.561l-54.136 38.4zM194.185 120.218c156.571-156.536 401.75-170.941 575.182-44.137l-24.374 24.374c-159.846-113.664-383.386-99.331-526.677 43.894-120.9 120.934-152.917 306.757-82.466 460.562l54.136-38.4 15.94 169.472-154.727-70.963 56.491-40.072c-79.906-167.8-45.977-372.191 86.494-504.73z" />
<glyph unicode="&#xe92e;" glyph-name="cash-14" d="M440.868 373.281c-20.856 15.872-54.444 26.591-100.695 32.087-19.489 2.081-33.723 5.632-42.701 10.614-9.011 5.018-13.481 10.65-13.481 16.965-0.376 8.635 4.367 16.11 14.3 22.426 9.969 6.28 22.392 9.421 37.309 9.421 25.6-0.274 44.544-8.123 56.763-23.585l51.031 17.715c-17.92 23.209-43.251 37.545-75.712 43.348v31.060h-52.188v-29.32c-24.305-2.798-44.613-10.412-60.757-23.245-20.651-16.417-30.617-34.304-29.832-53.727 0-16.315 9.727-30.275 29.252-41.948 19.525-11.709 47.616-19.354 84.311-23.040 27.169-3.379 46.077-9.114 56.796-17.137 10.683-7.987 15.872-16.041 15.462-24.2 0-12.050-6.689-22.664-20.104-31.675-13.345-9.080-29.22-13.45-47.549-13.21-31.777 0-56.591 12.731-74.58 38.195l-57.924-20.106c24.098-33.928 59.493-52.905 104.926-58.708v-43.213h52.188v42.12c25.874 3.21 48.333 11.333 67.141 24.612 24.85 17.475 37.274 37.478 37.274 60.006 0 20.48-10.442 38.671-31.229 54.543zM768 21.332c-122.54 0-221.868 99.328-221.868 221.868s99.328 221.868 221.868 221.868c122.54 0 221.868-99.328 221.868-221.868s-99.328-221.868-221.868-221.868zM133.188 114.074l-23.108 8.159-15.122-19.287c-6.622-8.463-16.349-13.345-26.692-13.345-18.842 0-34.134 15.327-34.134 34.132 0 10.616 4.916 18.194 9.012 22.733l15.188 16.727-9.455 20.547c-9.933 21.471-14.745 46.456-14.745 76.529 0 168.822 87.792 245.658 165.308 313.48 45.909 40.108 89.667 78.438 103.355 130.253h77.074c13.686-51.814 57.48-90.145 103.355-130.253 42.634-37.307 88.302-77.414 120.832-134.008-56.218-46.932-92.058-117.555-92.058-196.539 0-47.411 13.14-91.681 35.599-129.741-47.171-16.248-112.707-23.859-206.267-23.859-94.753 0-160.904 7.782-208.144 24.474zM768 499.2c-50.278 0-96.973-14.676-136.532-39.698-78.95 134.111-221.868 179.781-221.868 278.631h34.132v34.133h-34.132l34.132 136.534h-102.4l-15.155-60.655-18.977 94.788h-68.267l34.134-170.667h-34.134v-34.133h34.134c0-136.533-273.068-170.666-273.068-477.866 0-36.216 6.383-65.946 17.852-90.865-10.991-12.116-17.852-27.988-17.852-45.67 0-37.716 30.584-68.265 68.267-68.265 21.845 0 41.062 10.478 53.555 26.383 56.934-20.070 131.55-26.383 219.511-26.383s162.542 6.313 219.476 26.383c7.135-9.044 16.52-15.974 27.205-20.582 46.249-45.773 109.773-74.068 179.986-74.068 141.414 0 256 114.586 256 256s-114.586 256-256 256zM719.736 182.853l-72.397 72.43-24.133-24.166 96.53-96.53 193.057 193.093-24.133 24.133-168.924-168.96z" />
<glyph unicode="&#xe92f;" glyph-name="cash-15" d="M228.065 115.474c-9.933 21.468-14.732 46.454-14.732 76.526 0 168.824 87.797 245.658 165.273 313.48 45.911 40.108 89.669 78.438 103.391 130.253h77.074c13.652-51.814 57.446-90.145 103.322-130.253 77.55-67.822 165.34-144.655 165.34-313.48 0-30.072-4.813-55.058-14.746-76.526l-9.454-20.549 15.188-16.724c4.063-4.541 9.011-12.119 9.011-22.733 0-18.808-15.324-34.135-34.132-34.135-10.342 0-20.070 4.882-26.726 13.348l-15.086 19.284-23.109-8.159c-47.276-16.691-113.426-24.474-208.146-24.474-94.787 0-160.937 7.782-208.133 24.474l-23.132 8.159-15.135-19.284c-6.6-8.466-16.333-13.348-26.666-13.348-18.869 0-34.134 15.327-34.134 34.135 0 10.614 4.864 18.191 8.998 22.733l15.203 16.724-9.469 20.549zM247.467-12.8c21.797 0 41.066 10.478 53.53 26.386 56.924-20.070 131.54-26.386 219.535-26.386 87.928 0 162.545 6.316 219.479 26.386 12.526-15.908 31.708-26.386 53.588-26.386 37.65 0 68.268 30.548 68.268 68.268 0 17.679-6.861 33.551-17.853 45.67 11.436 24.916 17.853 54.646 17.853 90.862 0 307.2-273.068 341.332-273.068 477.868h34.132v34.132h-34.132l34.132 136.533h-102.4l-15.155-60.655-18.977 94.788h-68.268l34.135-170.666h-34.135v-34.132h34.135c0-136.535-273.068-170.668-273.068-477.868 0-36.216 6.332-65.946 17.865-90.862-11.001-12.119-17.865-27.991-17.865-45.67 0-37.719 30.532-68.268 68.267-68.268zM428.987 165.857c24.338-28.091 57.277-42.12 98.954-42.12 52.736 0 93.865 21.88 123.392 65.605l-53.317 24.814c-14.336-23.621-37.343-35.635-69.153-35.873-23.793 0-42.803 8.771-56.934 26.35-7.475 9.285-12.869 20.649-16.317 33.894h86.118v26.181h-90.214c-0.307 4.641-0.783 9.147-0.783 14.198 0 4.301 0.476 8.294 0.783 12.39h90.214v26.181h-85.537c3.482 11.128 8.397 21.435 15.020 30.789 13.652 19.354 32.527 29.32 56.73 29.934 31.13-0.888 54.92-13.21 71.475-36.795l51.917 23.926c-29.184 43.725-70.349 65.605-123.392 65.605-41.951 0-74.993-13.722-99.159-41.198-16.929-19.251-27.51-43.52-32.596-72.261h-17.92v-26.181h15.188c-0.238-4.47-0.852-8.635-0.852-13.276 0-4.677 0.648-8.806 0.852-13.312h-15.188v-26.181h17.989c5.153-28.672 15.803-53.043 32.732-72.671z" />
<glyph unicode="&#xe930;" glyph-name="cash-16" d="M456.192 508.447c-12.116 3.412-22.868 8.123-32.256 14.095-9.352 6.008-16.86 13.724-22.561 23.145-5.734 9.421-8.568 21.64-8.568 36.623 0 16.691 2.593 31.13 7.852 43.348 5.289 12.186 12.595 22.154 21.947 29.868 9.318 7.713 20.070 13.345 32.187 17.032 9.933 2.97 20.618 4.439 31.608 4.984v-176.914c-10.273 2.493-20.411 5.018-30.208 7.818zM520.532 453.115c13.176-2.97 26.522-6.62 40.21-10.854 13.652-4.265 25.976-9.728 36.933-16.315 10.99-6.725 20.001-15.155 27.1-25.428 7.101-10.24 10.616-23.109 10.616-38.538 0-16.724-3.244-30.958-9.933-42.701-6.587-11.776-15.324-21.537-26.043-29.217-10.752-7.749-22.938-13.279-36.692-16.724-13.619-3.415-27.684-5.087-42.191-5.087v184.865zM410.284 304.192c-19.456 20.14-29.356 55.329-29.834 92.603h-43.177c0-48.673 14.917-92.296 39.391-117.348 23.311-23.859 60.142-38.195 109.737-43.589v-77.996h34.132v76.324c20.004 0 39.46 2.66 58.335 8.020 18.944 5.325 35.873 13.448 50.721 24.44 14.884 10.888 26.693 24.335 35.671 40.412 8.873 16.077 13.345 34.578 13.345 55.534 0 22.29-4.608 40.927-13.722 55.946-9.147 14.95-21.164 27.341-35.942 37.238-14.881 9.83-31.813 17.51-50.79 23.109-18.842 5.53-38.093 10.24-57.618 14.029v185.070c30.072-0.067 54.374-9.59 73.080-28.57 18.706-19.046 28.844-49.869 29.32-81.953h42.598c0.548 20.959-3.003 45.261-10.58 62.328-7.544 17.134-18.022 31.811-31.47 43.996-13.553 12.221-29.184 21.642-47.002 28.298-17.784 6.621-36.421 9.898-55.946 9.898v60.279h-34.132v-60.758c-17.375-0.649-33.825-3.072-49.050-8.158-17.339-5.768-32.563-14.098-45.601-25.019-13.005-10.924-23.281-24.1-30.822-39.493-7.511-15.429-11.333-32.768-11.333-52.088 0-22.63 3.927-41.3 11.674-55.808 7.749-14.607 18.125-26.588 31.199-36.009 13.005-9.388 28.329-16.896 45.875-22.426 15.36-4.882 31.539-8.773 48.059-12.357v-190.669c-32.461 4.608-58.061 15.974-76.116 34.714zM503.468 857.6c216.438 0 392.532-176.059 392.532-392.532s-176.095-392.535-392.532-392.535c-216.44 0-392.534 176.061-392.534 392.535s176.094 392.532 392.534 392.532zM503.468 38.4c235.622 0 426.665 191.045 426.665 426.668s-191.043 426.666-426.665 426.666c-235.622 0-426.668-191.043-426.668-426.666s191.045-426.668 426.668-426.668z" />
<glyph unicode="&#xe931;" glyph-name="cash-v7" d="M228.078 115.474c-9.933 21.468-14.745 46.454-14.745 76.526 0 168.824 87.792 245.658 165.309 313.48 45.908 40.108 89.667 78.438 103.355 130.253h77.074c13.686-51.814 57.48-90.145 103.355-130.253 77.517-67.822 165.307-144.655 165.307-313.48 0-30.072-4.81-55.058-14.743-76.526l-9.457-20.549 15.188-16.724c4.063-4.541 9.011-12.119 9.011-22.733 0-18.808-15.324-34.135-34.132-34.135-10.342 0-20.070 4.882-26.726 13.348l-15.086 19.284-23.109-8.159c-47.276-16.691-113.39-24.474-208.146-24.474-94.753 0-160.904 7.782-208.143 24.474l-23.109 8.159-15.122-19.284c-6.623-8.466-16.348-13.348-26.691-13.348-18.842 0-34.134 15.327-34.134 34.135 0 10.614 4.916 18.191 9.012 22.733l15.188 16.724-9.455 20.549zM247.467-12.8c21.845 0 41.063 10.478 53.556 26.386 56.934-20.070 131.548-26.386 219.51-26.386s162.542 6.316 219.476 26.386c12.529-15.908 31.711-26.386 53.591-26.386 37.683 0 68.268 30.548 68.268 68.268 0 17.679-6.861 33.551-17.853 45.67 11.469 24.916 17.853 54.646 17.853 90.862 0 307.2-273.068 341.332-273.068 477.868h34.132v34.132h-34.132l34.132 136.533h-102.4l-15.155-60.655-18.977 94.788h-68.268l34.135-170.666h-34.135v-34.132h34.135c0-136.535-273.068-170.668-273.068-477.868 0-36.216 6.383-65.946 17.852-90.862-10.991-12.119-17.852-27.991-17.852-45.67 0-37.719 30.584-68.268 68.267-68.268zM569.823 220.78c-13.348-9.080-29.22-13.45-47.549-13.21-31.777 0-56.591 12.731-74.58 38.195l-57.925-20.106c24.1-33.928 59.497-52.905 104.927-58.708v-43.213h52.191v42.12c25.874 3.21 48.333 11.333 67.141 24.612 24.847 17.475 37.274 37.476 37.274 60.004 0 20.48-10.445 38.674-31.232 54.546-20.856 15.872-54.444 26.591-100.695 32.087-19.489 2.081-33.723 5.632-42.701 10.614-9.011 5.018-13.481 10.65-13.481 16.965-0.376 8.635 4.367 16.11 14.3 22.426 9.969 6.28 22.392 9.421 37.307 9.421 25.6-0.274 44.547-8.123 56.765-23.585l51.028 17.715c-17.92 23.209-43.246 37.545-75.707 43.348v31.060h-52.191v-29.32c-24.302-2.798-44.613-10.412-60.756-23.245-20.652-16.417-30.618-34.304-29.832-53.727 0-16.315 9.725-30.275 29.251-41.948 19.525-11.709 47.616-19.354 84.311-23.040 27.169-3.379 46.077-9.114 56.796-17.137 10.683-7.987 15.872-16.041 15.462-24.2 0-12.050-6.689-22.664-20.104-31.675z" />
<glyph unicode="&#xe932;" glyph-name="chart-1" d="M896 72.532h-770.936l139.23 139.231 147.592 29.491 182.205-109.294 184.558 184.558 117.35 46.932v-290.918zM110.933 196.71l155.033 186.061 145.92 29.151 182.205-109.297 186.537 186.54 115.372 69.222v-158.175l-136.532-54.612-170.668-170.668-170.668 102.4-170.666-34.132-136.534-136.532v90.043zM110.933 367.375l149.777 179.715 163.668-32.768 173.875 104.346h175.345l122.401 122.401v-142.881l-136.532-81.92-170.668-170.668-170.668 102.4-170.666-34.132-136.534-163.84v117.348zM930.132 72.532v750.934l-170.665-170.666h-170.668l-170.668-102.4-170.666 34.132-170.667-204.8v-341.332h853.332v34.132z" />
<glyph unicode="&#xe933;" glyph-name="chart-2" d="M281.6 21.332h-170.667v170.668h170.667v-170.668zM588.8 192v-170.668h-170.668v170.668h170.668zM418.132 669.868v170.666h170.668v-170.666h-170.668zM896 192v-170.668h-170.668v170.668h170.668zM315.732 226.132h-102.399v204.8h273.067v-204.8h-102.4v-238.932h238.932v238.932h-102.4v204.8h273.068v-204.8h-102.4v-238.932h238.932v238.932h-102.4v238.935h-307.2v170.665h102.4v238.934h-238.932v-238.934h102.4v-170.665h-307.2v-238.935h-102.4v-238.932h238.932v238.932z" />
<glyph unicode="&#xe934;" glyph-name="chart-3" d="M291.602 770.39l216.814-352.324 363.86-195.927c-71.475-120.013-202.204-200.806-351.744-200.806-225.859 0-409.599 183.741-409.599 409.6 0 141.143 71.749 265.797 180.669 339.458zM520.532 840.533c72.535 0 140.631-19.148 199.818-52.36l-199.818-324.678-199.816 324.678c59.187 33.212 127.283 52.36 199.816 52.36zM749.466 770.39c108.918-73.66 180.667-198.314 180.667-339.458 0-64.136-15.224-124.618-41.644-178.721l-343.962 185.175 204.938 333.004zM520.532-12.8c162.816 0 304.745 87.928 381.919 218.657 5.804 9.797 11.197 19.832 16.212 30.072 28.946 58.949 45.604 124.928 45.604 195.003 0 153.669-78.134 289.041-196.815 368.674-9.454 6.315-19.249 12.119-29.181 17.717-64.376 36.352-138.547 57.343-217.738 57.343-79.188 0-153.359-20.991-217.736-57.343-9.933-5.598-19.727-11.402-29.184-17.717-118.681-79.633-196.813-215.005-196.813-368.674 0-245.076 198.656-443.732 443.732-443.732z" />
<glyph unicode="&#xe935;" glyph-name="chart-4" d="M725.332 21.332c-122.537 0-221.865 99.328-221.865 221.868s99.328 221.868 221.865 221.868c122.54 0 221.868-99.328 221.868-221.868s-99.328-221.868-221.868-221.868zM59.733 499.2c0 141.14 71.749 265.797 180.668 339.457l216.814-352.326 97.587-52.564c-52.326-46.866-85.471-114.757-85.471-190.566 0-56.218 18.33-108.065 49.085-150.287-16.113-1.946-32.428-3.313-49.085-3.313-225.859 0-409.599 183.739-409.599 409.6zM469.332 908.8c72.535 0 140.631-19.148 199.818-52.36l-199.818-324.677-199.816 324.677c59.187 33.212 127.283 52.36 199.816 52.36zM698.266 838.657c108.918-73.66 180.667-198.316 180.667-339.457 0-16.691-1.126-33.075-3.139-49.221-42.258 30.822-94.141 49.221-150.461 49.221-52.155 0-100.623-15.667-141.105-42.496l-90.9 48.947 204.938 333.006zM905.933 424.586c4.198 24.302 7.135 49.083 7.135 74.614 0 153.669-78.134 289.040-196.815 368.673-9.454 6.315-19.249 12.119-29.181 17.717-64.376 36.352-138.547 57.343-217.738 57.343-79.188 0-153.359-20.991-217.736-57.343-9.933-5.598-19.728-11.402-29.183-17.717-118.682-79.633-196.813-215.004-196.813-368.673 0-245.076 198.656-443.732 443.732-443.732 25.636 0 50.655 2.424 75.095 6.587 46.318-46.249 110.285-74.854 180.905-74.854 141.414 0 256 114.619 256 256 0 70.894-28.841 135.032-75.4 181.386zM870.124 327.68l-24.131 24.131-168.927-168.96-72.397 72.433-24.133-24.166 96.53-96.53 193.057 193.093z" />
<glyph unicode="&#xe936;" glyph-name="chart-5" d="M435.2 830.562v-442.3h442.332c-17.408-209.92-193.876-375.468-408.2-375.468-225.859 0-409.599 183.741-409.599 409.6 0 214.359 165.547 390.794 375.467 408.167zM469.332-21.338c245.079 0 443.735 198.656 443.735 443.732h-443.735v443.734c-245.076 0-443.732-198.655-443.732-443.734 0-245.076 198.656-443.732 443.732-443.732zM571.732 524.795v374.034c198.656-16.452 357.614-175.343 374.067-374.034h-374.067zM537.6 934.396v-443.734h443.732c0 245.078-198.656 443.734-443.732 443.734z" />
<glyph unicode="&#xe937;" glyph-name="chart-6" d="M119.467 465.068h170.666v-443.735h-170.666v443.735zM426.668 635.732h170.665v-614.4h-170.665v614.4zM733.868 840.533h170.665v-819.201h-170.665v819.201zM324.268-12.8h648.532v34.132h-34.132v853.334h-238.935v-853.334h-68.265v648.535h-238.935v-648.535h-68.265v477.868h-238.934v-477.868h-34.133v-34.132h273.068z" />
<glyph unicode="&#xe938;" glyph-name="chart-7" d="M930.132 226.132v-170.665h-819.199v170.665h819.199zM725.332 533.332v-170.665h-614.399v170.665h614.399zM554.668 840.534v-170.666h-443.734v170.666h443.734zM110.933 21.332h853.334v238.935h-853.334v68.265h648.534v238.935h-648.534v68.265h477.867v238.934h-477.867v34.133h-34.133v-921.6h34.133v34.132z" />
<glyph unicode="&#xe939;" glyph-name="chart-8" d="M162.138 345.605c37.707 0 68.266-30.584 68.266-68.268s-30.559-68.268-68.266-68.268c-37.707 0-68.267 30.584-68.267 68.268s30.559 68.268 68.267 68.268zM332.805 584.538c0 37.683 30.559 68.268 68.265 68.268 37.709 0 68.268-30.584 68.268-68.268s-30.559-68.268-68.268-68.268c-37.706 0-68.265 30.584-68.265 68.268zM640.005 448.005c37.706 0 68.265-30.584 68.265-68.268s-30.559-68.268-68.265-68.268c-37.709 0-68.268 30.584-68.268 68.268s30.559 68.268 68.268 68.268zM810.67 721.071c0 37.683 30.561 68.266 68.268 68.266s68.268-30.583 68.268-68.266c0-37.684-30.561-68.266-68.268-68.266s-68.268 30.582-68.268 68.266zM162.138 174.938c56.559 0 102.4 45.842 102.4 102.4 0 26.657-10.441 50.757-27.133 68.984l115.425 148.411c14.444-7.782 30.707-12.595 48.241-12.595 24.934 0 47.429 9.249 65.203 24.031l86.223-73.9c-9.267-15.429-14.892-33.247-14.892-52.531 0-56.558 45.839-102.4 102.4-102.4 56.558 0 102.4 45.842 102.4 102.4 0 28.536-11.709 54.305-30.533 72.876l123.333 176.195c13.307-6.313 28.001-10.138 43.732-10.138 56.558 0 102.4 45.842 102.4 102.401s-45.842 102.4-102.4 102.4c-56.558 0-102.4-45.841-102.4-102.4 0-28.535 11.735-54.306 30.559-72.876l-123.356-176.195c-13.297 6.316-28.027 10.138-43.735 10.138-24.934 0-47.429-9.249-65.203-24.031l-86.223 73.9c9.267 15.429 14.892 33.247 14.892 52.531 0 56.558-45.839 102.4-102.4 102.4-56.558 0-102.4-45.842-102.4-102.4 0-26.693 10.442-50.757 27.133-68.984l-115.425-148.411c-14.442 7.782-30.706 12.595-48.241 12.595-56.559 0-102.4-45.842-102.4-102.4s45.841-102.4 102.4-102.4zM1015.468 72.532h-989.868v-34.132h989.868v34.132z" />
<glyph unicode="&#xe93a;" glyph-name="chart-9" d="M708.268 46.932v477.868h136.532v-477.868h-136.532zM435.2 46.932v375.468h136.532v-375.468h-136.532zM162.133 46.932v273.068h136.534v-273.068h-136.534zM981.332 46.932h-102.4v512h-204.8v-512h-68.265v409.6h-204.8v-409.6h-68.268v307.2h-204.8v-307.2h-102.4v-34.132h955.732v34.132zM799.301 627.438l91.546 183.398-189.576 77.995-13.041-31.573 132.439-54.477-698.67-262.007 12.001-31.949 698.716 262.007-64-128.137 30.584-15.258z" />
<glyph unicode="&#xe93b;" glyph-name="chart-10" d="M708.268 98.132v273.068h136.532v-273.068h-136.532zM435.2 98.132v375.468h136.532v-375.468h-136.532zM162.133 98.132v477.868h136.534v-477.868h-136.534zM981.332 98.132h-102.4v307.2h-204.8v-307.2h-68.265v409.6h-204.8v-409.6h-68.268v512h-204.8v-512h-102.4v-34.132h955.732v34.132zM701.263 485l189.542 77.96-91.546 183.433-30.548-15.224 63.967-128.135-698.676 262.007-12.015-31.95 698.743-262.042-132.506-54.477 13.038-31.572z" />
<glyph unicode="&#xe93c;" glyph-name="chart-11" d="M128 550.4h102.4v-477.868h-102.4v477.868zM264.532 823.467h102.4v-750.934h-102.4v750.934zM503.468 652.8v-580.268h-102.4v580.268h102.4zM640 550.4v-477.868h-102.4v477.868h102.4zM674.132 823.467h102.4v-750.934h-102.4v750.934zM913.068 652.8v-580.268h-102.4v580.268h102.4zM230.4 38.4h785.068v34.132h-68.268v614.4h-136.532v170.668h-170.668v-273.068h-102.4v102.4h-136.532v170.668h-170.668v-273.068h-136.533v-512h-68.267v-34.132h204.8z" />
<glyph unicode="&#xe93d;" glyph-name="check" d="M802.132 379.732c0-169.403-137.795-307.2-307.2-307.2-169.403 0-307.199 137.797-307.199 307.2 0 169.405 137.796 307.2 307.199 307.2 68.268 0 131.21-22.664 182.272-60.449l-168.584-330.99c-9.183-17.137-18.294-36.49-24.166-49.766h-0.75c0.614 13.993 0.238 32.63-1.503 49.766l-23.621 268.219-119.26-44.306 4.982-36.557 64.036 24.133 35.395-332.050h49.016l218.624 422.572c56.013-55.672 90.76-132.744 90.76-217.772zM812.273 891.733l-119.332-234.292c-55.877 39.903-124.076 63.625-198.008 63.625-188.518 0-341.332-152.816-341.332-341.334s152.814-341.332 341.332-341.332c188.518 0 341.335 152.814 341.335 341.332 0 98.476-41.951 186.949-108.613 249.242l135.951 262.759h-51.333z" />
<glyph unicode="&#xe93e;" glyph-name="coupon" d="M930.132 123.732h-819.199v181.591c43.076 33.792 68.267 85.775 68.267 142.676s-25.19 108.884-68.267 142.676v181.59h819.199v-181.59c-43.075-33.792-68.265-85.775-68.265-142.676s25.19-108.884 68.265-142.676v-181.591zM964.268 323.039c-40.62 25.155-68.268 71.406-68.268 124.961s27.648 99.807 68.268 124.961v233.439h-887.468v-233.439c40.619-25.155 68.267-71.406 68.267-124.961s-27.648-99.807-68.267-124.961v-233.439h887.468v233.439zM725.335 635.725h34.132v34.132h-34.132v-34.132zM725.335 704h34.132v34.133h-34.132v-34.133zM725.335 567.462h34.132v34.132h-34.132v-34.132zM725.335 499.2h34.132v34.132h-34.132v-34.132zM725.335 430.925h34.132v34.132h-34.132v-34.132zM725.335 362.662h34.132v34.132h-34.132v-34.132zM725.335 294.4h34.132v34.132h-34.132v-34.132zM725.335 226.125h34.132v34.132h-34.132v-34.132zM725.335 157.862h34.132v34.132h-34.132v-34.132zM557.023 601.6l-275.423-307.2h32.154l275.046 307.2h-31.777zM310.546 512.241c1.057 7.032 2.322 13.55 3.789 19.628 1.569 6.349 3.551 13.005 6.008 20.035 2.458 7.032 5.563 13.553 9.388 19.456 3.789 5.906 8.259 10.854 13.481 14.884 5.222 3.994 11.297 5.972 18.26 5.972 7.204 0 12.426-1.979 15.565-5.972 3.141-4.029 5.087-8.978 5.942-14.884 0.783-5.903 0.612-12.424-0.445-19.456-1.057-7.030-2.355-13.55-3.753-19.592-1.572-6.349-3.587-13.176-6.077-20.308-2.491-7.135-5.596-13.688-9.421-19.594-3.822-5.972-8.328-10.854-13.484-14.676-5.153-3.891-11.331-5.768-18.534-5.768-7.030 0-12.047 1.946-15.188 5.939-3.139 3.994-5.153 8.975-5.972 14.881-0.75 5.939-0.684 12.424 0.443 19.456zM299.999 455.613c6.656-4.301 15.634-6.451 26.829-6.451 10.957 0 20.754 2.355 29.356 7.066 8.635 4.677 16.282 10.785 22.938 18.363 6.758 7.613 12.357 16.42 16.965 26.488 4.47 10.035 8.090 20.447 10.65 31.232 2.729 11.264 4.436 21.947 4.982 32.051 0.581 10.035-0.545 18.772-3.343 26.181-2.834 7.475-7.475 13.414-13.996 17.851-6.587 4.403-15.667 6.587-27.377 6.587-11.469 0-21.64-2.286-30.479-6.825-8.74-4.575-16.522-10.719-23.109-18.399-6.587-7.749-12.116-16.622-16.52-26.657-4.472-10.071-8.020-20.754-10.752-32.051-2.732-11.3-4.234-21.949-4.541-31.846-0.271-9.933 1.024-18.604 3.994-26.045 2.903-7.439 7.716-13.312 14.405-17.544zM568.899 390.346c-1.057-7.066-2.355-13.586-3.825-19.661-1.536-6.316-3.548-13.11-6.006-20.278-2.491-7.132-5.632-13.686-9.421-19.592-3.858-5.972-8.294-10.854-13.45-14.746-5.187-3.822-11.397-5.768-18.601-5.768-6.963 0-12.014 2.012-15.188 6.006-3.141 3.994-5.156 8.978-5.906 14.917-0.819 5.87-0.717 12.39 0.41 19.387 1.057 7.066 2.355 13.586 3.789 19.661 1.536 6.316 3.551 13.007 5.972 20.073 2.493 7.030 5.599 13.481 9.388 19.42 3.789 5.906 8.294 10.854 13.517 14.881 5.189 3.994 11.297 5.975 18.26 5.975 7.237 0 12.426-1.981 15.565-5.975 3.141-4.027 5.087-8.975 5.939-14.881 0.786-5.939 0.614-12.39-0.443-19.42zM580.744 446.766c-6.587 4.37-15.667 6.589-27.41 6.589-11.436 0-21.606-2.289-30.413-6.794-8.84-4.572-16.556-10.683-23.142-18.432-6.623-7.713-12.116-16.589-16.52-26.624-4.472-10.068-8.020-20.787-10.752-32.051-2.732-11.297-4.234-21.947-4.575-31.846-0.274-9.933 1.057-18.534 4.027-25.838 2.97-7.34 7.818-13.107 14.438-17.375 6.725-4.265 15.703-6.382 26.898-6.382 10.957 0 20.754 2.253 29.286 6.828 8.568 4.539 16.212 10.58 22.904 18.158 6.723 7.578 12.355 16.417 16.929 26.488 4.506 10.035 8.090 20.444 10.683 31.199 2.732 11.264 4.439 21.98 4.951 32.015 0.614 10.104-0.512 18.842-3.31 26.248-2.834 7.475-7.511 13.414-13.996 17.818z" />
<glyph unicode="&#xe93f;" glyph-name="desk" d="M136.533 294.4h750.934v-238.932h-750.934v238.932zM136.533 567.468h750.934v-238.935h-750.934v238.935zM136.533 840.533h750.934v-238.933h-750.934v238.933zM136.533-12.8h136.534v34.132h477.865v-34.132h136.535v34.132h34.132v853.334h-819.2v-853.334h34.133v-34.132zM614.4 738.133h-204.8v34.134h-34.135v-68.267h273.068v68.267h-34.132v-34.134zM614.4 465.070h-204.8v34.135h-34.135v-68.268h273.068v68.268h-34.132v-34.135zM614.4 192.008h-204.8v34.135h-34.135v-68.268h273.068v68.268h-34.132v-34.135z" />
<glyph unicode="&#xe940;" glyph-name="diamond" d="M379.22 533.332h282.627l-125.545-376.591-15.77-16.965-15.77 16.965-125.542 376.591zM155.068 533.332h188.174l105.372-316.142-293.546 316.142zM120.15 570.949l80.862 121.242 124.723-124.723h-202.411l-3.173 3.482zM231.595 738.133h219.206l-103.084-144.349-127.42 127.384 11.298 16.965zM548.283 738.133l121.961-170.666h-299.42l121.958 170.666h55.501zM809.475 738.133l11.295-16.965-127.419-127.384-103.084 144.349h219.208zM840.056 692.191l80.86-121.242-3.174-3.482h-202.409l124.723 124.723zM592.453 217.19l105.37 316.142h188.178l-293.548-316.142zM964.268 567.468l-136.535 204.799h-614.399l-136.533-204.799 443.732-477.868 443.735 477.868z" />
<glyph unicode="&#xe941;" glyph-name="email" d="M433.152 258.189c-66.56 0-95.437 45.53-95.437 113.249 0 106.534 85.468 263.071 205.379 263.071 66.56 0 95.437-34.442 95.437-106.604 0-102.093-86.561-269.716-205.379-269.716zM766.193 671.132h-63.283l-27.717-73.252h-2.253c-25.498 67.72-72.159 92.093-124.314 92.093-158.72 0-270.848-169.812-270.848-324.096 0-102.129 58.844-163.226 146.568-163.226 62.121 0 104.312 25.6 156.467 75.494h2.22c-1.093-52.188 32.154-75.494 75.469-75.494 119.91 0 263.099 142.095 263.099 314.202 0 197.56-172.032 340.746-387.412 340.746-237.568 0-431.788-183.16-431.788-409.6 0-225.385 186.504-409.6 431.788-409.6 152.064 0 295.286 77.693 371.848 202.002h-66.56c-58.88-94.349-186.504-153.124-305.288-153.124-210.877 0-376.321 160.909-376.321 360.722 0 192.041 158.721 360.721 376.321 360.721 172.032 0 331.878-114.283 331.878-288.56 0-115.443-99.876-268.628-197.599-268.628-19.968 0-29.937 8.868-29.937 27.745 0 17.723 6.623 42.163 14.438 65.469l113.224 326.385z" />
<glyph unicode="&#xe942;" glyph-name="gift" d="M162.133 610.13h341.334v-136.535h-341.334v136.535zM298.668 746.662c0 56.457 45.942 102.4 102.4 102.4 56.456 0 102.4-45.943 102.4-102.4v-102.4h-102.4c-56.458 0-102.4 45.944-102.4 102.4zM503.468 63.995h-307.201v375.468h307.201v-375.468zM537.6 439.462h307.2v-375.468h-307.2v375.468zM537.6 610.13h341.332v-136.535h-341.332v136.535zM537.6 746.662c0 56.457 45.944 102.4 102.4 102.4s102.4-45.943 102.4-102.4c0-56.456-45.944-102.4-102.4-102.4h-102.4v102.4zM128 439.462h34.133v-409.6h716.799v409.6h34.135v204.8h-183.636c28.636 25.019 47.101 61.406 47.101 102.4 0 75.366-61.133 136.534-136.532 136.534-51.814 0-96.325-29.184-119.468-71.748-23.142 42.564-67.651 71.748-119.465 71.748-75.402 0-136.535-61.167-136.535-136.534 0-40.994 18.465-77.381 47.104-102.4h-183.636v-204.8z" />
<glyph unicode="&#xe943;" glyph-name="globe" d="M615.127 39.386c35.807 33.188 66.493 80.696 89.6 138.002 29.663-9.628 57.037-21.053 81.203-34.294-46.966-47.48-105.37-83.561-170.803-103.708zM899.594 489.574c1.981-13.688 3.482-27.512 4.096-41.574h-27.648c-6.828-11.366-14.095-22.733-21.64-34.132h49.288c-3.891-93.286-38.707-178.683-95.027-245.788-27.443 15.828-58.639 29.412-92.467 40.681 5.258 15.56 9.864 31.747 13.996 48.399-9.866-10.506-19.763-21.053-30.072-31.398-12.526-12.534-25.293-24.64-38.126-36.495 3.515-0.852 7.201-1.559 10.683-2.455-37.307-92.265-94.925-154.586-160.666-163.876v48.543c-11.4-7.547-22.766-14.81-34.132-21.637v-26.906c-10.547 1.505-20.754 4.785-30.822 8.945-20.856-11.469-41.472-21.332-61.919-30.346 35.159-9.011 71.818-14.333 109.809-14.333 126.259 0 239.887 52.974 320.714 137.587 7.613 8.026 15.224 16.082 22.257 24.614 62.943 76.598 100.762 174.661 100.762 281.531 0 38.129-4.984 75.095-14.065 110.423-7.508-17.137-15.734-34.373-25.019-51.781zM239.445 413.87c1.638-74.547 13.824-144.351 34.237-205.107-33.827-11.269-65.025-24.852-92.468-40.681-56.32 67.105-91.136 152.502-95.027 245.788h153.258zM181.214 693.796c27.443-15.836 58.64-29.422 92.468-40.686-20.413-60.756-32.599-130.56-34.237-205.107h-153.258c3.891 93.286 38.707 178.688 95.027 245.793zM374.751 822.48c-35.807-33.178-66.493-80.691-89.6-138.002-29.662 9.626-57.038 21.061-81.204 34.305 46.967 47.48 105.404 83.558 170.804 103.697zM477.868 838.932v-185.651c-57.413 1.295-111.652 8.942-160.666 21.775 37.307 92.264 94.925 154.591 160.666 163.875zM477.868 448.003h-204.324c1.605 71.406 13.074 138.002 32.087 195.482 52.634-14.405 110.797-22.938 172.237-24.302v-171.18zM477.868 242.698c-61.44-1.377-119.603-9.91-172.237-24.31-19.013 57.48-30.482 124.073-32.087 195.482h204.324v-171.172zM512 619.182c61.44 1.364 119.603 9.897 172.237 24.302 19.013-57.48 30.482-124.076 32.084-195.482h-204.321v171.18zM512 838.932c65.741-9.284 123.359-71.612 160.666-163.875-49.016-12.833-103.252-20.48-160.666-21.775v185.651zM785.92 718.782c-24.166-13.244-51.54-24.679-81.203-34.305-23.109 57.311-53.793 104.825-89.6 138.002 65.434-20.139 123.835-56.218 170.803-103.697zM151.962 149.404c7.032-8.532 14.643-16.589 22.255-24.612 21.606-22.592 45.67-42.765 71.578-60.419 14.883 2.468 30.448 6.016 46.934 11.164-32.53 18.611-62.601 41.065-88.782 67.558 24.166 13.24 51.542 24.666 81.204 34.294 13.174-32.76 29.115-61.816 46.797-87.306 10.102 4.198 20.275 8.532 30.582 13.412-17.134 23.721-32.494 51.574-45.327 83.318 49.014 12.841 103.252 20.48 160.666 21.775v-36.961c11.4 7.987 22.766 16.31 34.132 24.991v11.971c4.813-0.108 9.421-0.507 14.2-0.707 12.833 10.161 25.564 20.708 38.228 31.706-17.203 1.536-34.644 2.734-52.429 3.11v171.172h204.321c-0.136-5.939-0.717-11.64-0.988-17.51 13.652 17.167 26.793 34.371 38.912 51.643h-3.825c-1.603 74.547-13.824 144.351-34.235 205.107 33.825 11.264 65.024 24.85 92.467 40.686 15.736-18.739 29.594-39.014 41.746-60.38 5.187 16.655 8.771 32.392 11.195 47.276-7.475 10.957-15.327 21.571-23.688 31.777-7.032 8.533-14.643 16.589-22.257 24.61-80.827 84.617-194.458 137.592-320.717 137.592s-239.888-52.975-320.716-137.592c-7.612-8.021-15.224-16.077-22.255-24.61-62.942-76.595-100.762-174.661-100.762-281.533 0-106.87 37.82-204.933 100.762-281.531zM347.584 22.495c106.939 41.879 223.572 122.642 328.397 227.4 104.755 104.819 185.513 221.453 227.395 328.394 39.969 102.159 39.834 185.070 1.057 236.953l60.554 16.043-169.132 71.031 71.032-169.165 14.779 55.739c26.419-42.666 23.178-113.186-10.102-198.109-40.177-102.707-118.205-215.212-219.717-316.759-101.548-101.514-214.052-179.54-316.759-219.715-47.342-18.534-90.145-27.653-126.224-27.615-37.581 0.041-67.891 10.002-88.030 30.134-25.088 25.093-34.474 65.92-28.33 117.12-9.489 14.815-18.057 30.203-25.908 46.108-19.934-81.641-10.137-147.149 30.106-187.348 26.966-26.972 65.093-40.52 111.923-40.52 0.034 0 0.068 0 0.102 0 40.414 0.028 87.21 10.107 138.856 30.308z" />
<glyph unicode="&#xe944;" glyph-name="gold" d="M120.525 226.132h288.018l51.2-204.8h-390.418l51.2 204.8zM435.2 260.268h-341.333l-68.267-273.068h477.868l-68.268 273.068zM647.475 567.47l51.2-204.8h-390.415l51.2 204.8h288.015zM264.535 328.538h477.865l-68.265 273.068h-341.335l-68.265-273.068zM598.395 226.132h288.015l51.2-204.8h-390.415l51.2 204.8zM913.068 260.268h-341.332l-68.268-273.068h477.868l-68.268 273.068zM810.668 499.2l34.135 170.668 170.665 34.132-170.665 34.133-34.135 170.667-34.132-170.667-170.668-34.133 170.668-34.132 34.132-170.668z" />
<glyph unicode="&#xe945;" glyph-name="handshake" d="M891.561 418.941l-313.754 313.787 96.53 96.529 313.823-313.753-96.599-96.563zM795.034 274.115c-13.312-13.271-34.954-13.271-48.266 0l-72.43 72.43-24.133-24.166 72.433-72.404c13.312-13.263 13.312-34.903 0-48.251-13.312-13.281-34.952-13.281-48.3 0l-72.397 72.392-24.133-24.141 72.397-72.387c13.348-13.317 13.348-34.959 0-48.264-13.276-13.345-34.918-13.345-48.264 0l-72.397 72.399-24.133-24.136 72.397-72.399c13.348-13.345 13.348-34.947 0-48.264-13.312-13.348-34.918-13.348-48.264 0l-362.019 362.017 265.489 265.523 24.133-24.133-120.696-120.694c-26.624-26.693-26.624-69.873 0-96.563 26.66-26.66 69.906-26.66 96.563 0l120.663 120.694 241.357-241.39c13.312-13.279 13.312-34.918 0-48.264zM119.262 418.941l-96.598 96.563 313.787 313.753 96.563-96.529-313.752-313.787zM481.28 684.465l-24.133 24.132 24.133 24.132-144.829 144.794-362.051-362.018 144.862-144.827 24.132 24.131 48.265-48.264c-26.692-26.657-26.692-69.906 0-96.571 14.473-14.505 33.894-20.81 52.803-19.543-1.263-18.949 5.087-38.336 19.592-52.844 14.508-14.505 33.894-20.823 52.872-19.558-1.331-18.947 5.053-38.333 19.525-52.841 14.508-14.508 33.897-20.826 52.874-19.558-1.262-18.975 5.051-38.359 19.558-52.838 26.624-26.655 69.87-26.655 96.527 0 26.66-26.655 69.906-26.655 96.53 0 14.505 14.479 20.82 33.864 19.558 52.838 18.977-1.267 38.367 5.051 52.838 19.558 14.508 14.508 20.89 33.894 19.558 52.841 18.98-1.265 38.367 5.053 52.872 19.558 14.508 14.508 20.856 33.894 19.594 52.844 18.911-1.267 38.331 5.038 52.803 19.543 26.693 26.665 26.693 69.914 0 96.571l48.266 48.264 24.131-24.131 144.863 144.827-362.086 362.018-193.057-193.058z" />
<glyph unicode="&#xe946;" glyph-name="hundred" d="M883.438 448l85.335-170.668h-913.532l85.333 170.668-85.333 170.668h913.532l-85.335-170.668zM512 72.532c-131.482 0-247.201 68.065-314.293 170.668h628.592c-67.105-102.602-182.817-170.668-314.299-170.668zM512 823.467c131.482 0 247.194-68.065 314.299-170.667h-628.592c67.092 102.601 182.811 170.667 314.293 170.667zM866.337 652.8c-70.825 122.307-202.854 204.8-354.337 204.8s-283.508-82.493-354.335-204.8h-157.665l102.4-204.8-102.4-204.8h157.665c70.826-122.294 202.852-204.8 354.335-204.8s283.512 82.506 354.337 204.8h157.663l-102.4 204.8 102.4 204.8h-157.663zM238.934 345.6h34.133v204.8h-34.133v-204.8zM341.332 516.268h68.268v-136.535h-68.268v136.535zM307.2 345.6h136.532v204.8h-136.532v-204.8zM512 516.268h68.265v-136.535h-68.265v136.535zM477.865 345.6h136.535v204.8h-136.535v-204.8zM682.668 550.395h-34.132v-34.132h34.132v34.132zM785.065 345.6h34.135v34.132h-34.135v-34.132zM648.535 345.6h34.132l136.532 204.8h-34.132l-136.532-204.8z" />
<glyph unicode="&#xe947;" glyph-name="inbox-1" d="M938.668 166.395h-853.334v375.468h242.040c16.11-87.278 92.774-153.6 184.627-153.6s168.55 66.322 184.627 153.6h242.040v-375.468zM237.875 746.662h548.25l142.234-170.668h-262.758c0-84.82-68.78-153.6-153.6-153.6s-153.6 68.78-153.6 153.6h-262.758l142.233 170.668zM972.8 575.995l-170.668 204.801h-580.266l-170.667-204.801v-443.732h921.6v443.732z" />
<glyph unicode="&#xe948;" glyph-name="inbox-2" d="M938.668 72.532h-853.334v375.468h242.040c16.11-87.278 92.774-153.6 184.627-153.6s168.55 66.322 184.627 153.6h242.040v-375.468zM972.8 482.132l-170.668 204.8h-34.132v-34.132h18.125l142.234-170.668h-262.758c0-84.82-68.78-153.6-153.6-153.6s-153.6 68.78-153.6 153.6h-262.758l142.233 170.668h18.125v34.132h-34.133l-170.667-204.8v-443.732h921.6v443.732zM494.935 891.738v-351.334l-163.942 163.976-24.133-24.131 193.057-193.126c3.21-3.174 7.544-4.984 12.083-4.984 4.541 0 8.876 1.81 12.083 4.984l193.060 193.126-24.133 24.131-163.942-163.976v351.334h-34.132z" />
<glyph unicode="&#xe949;" glyph-name="inbox-3" d="M887.468 72.532h-750.934v273.068h208.248c15.839-77.791 84.787-136.532 167.219-136.532s151.38 58.742 167.219 136.532h208.248v-273.068zM601.428 277.332c-23.995-20.992-55.022-34.132-89.428-34.132s-65.434 13.14-89.428 34.132h178.857zM204.8 413.868h614.4v-34.135h-170.668c0-24.986-7.201-48.128-18.944-68.265h-235.177c-11.743 20.137-18.944 43.279-18.944 68.265h-170.668v34.135zM204.8 550.4h614.4v-102.4h-614.4v102.4zM204.8 686.932h614.4v-102.4h-614.4v102.4zM204.8 823.467h614.4v-102.4h-614.4v102.4zM921.6 379.732h-68.268v477.868h-682.666v-477.868h-68.267v-341.332h819.2v341.332z" />
<glyph unicode="&#xe94a;" glyph-name="inbox-4" d="M938.668 72.532h-853.334v375.468h242.040c16.113-87.278 92.774-153.6 184.627-153.6s168.55 66.322 184.627 153.6h242.040v-375.468zM972.8 482.132l-170.668 204.8h-34.132v-34.132h18.125l142.234-170.668h-262.758c0-84.82-68.78-153.6-153.6-153.6s-153.6 68.78-153.6 153.6h-262.758l142.233 170.668h18.125v34.132h-34.133l-170.667-204.8v-443.732h921.6v443.732zM529.068 482.138v351.335l163.942-163.976 24.133 24.131-193.060 193.127c-3.208 3.174-7.542 4.983-12.083 4.983-4.539 0-8.873-1.809-12.083-4.983l-193.057-193.127 24.133-24.131 163.942 163.976v-351.335h34.132z" />
<glyph unicode="&#xe94b;" glyph-name="jigsaw" d="M847.122 331.402c-28.229-28.227-39.767-33.48-43.93-34.227 0 0.814-2.732 4.163-6.042 12.173-14.065 34.214-47.037 114.388-117.591 114.388-31.13 0-62.124-15.867-94.789-48.535-38.298-38.267-54.031-75.878-46.897-111.718 10.511-52.467 65.741-81.347 112.707-100.692 10.547-4.337 13.005-7.654 13.041-7.68-0.922-0.855-4.644-11.843-35.057-42.296-21.435-21.437-69.837-54.438-102.195-75.4l-395.434 395.428c32.017 21.135 77.177 52.508 101.138 76.465 21.606 21.576 61.881 61.816 53.111 105.615-4.882 24.44-22.868 43.213-53.384 55.734-44.51 18.36-68.642 35.533-71.748 51.026-2.287 11.575 7.986 29.775 28.193 50.015 24.849 24.839 39.801 28.56 46.525 28.56 16.418 0 34.747-24.293 54.477-72.12 18.568-45.121 47.444-54.613 68.403-54.613 35.704 0 66.732 28.055 93.012 54.374 21.811 21.852 49.836 61.266 70.587 92.331 20.823-31.092 48.845-70.584 70.692-92.399 26.281-26.32 57.311-54.411 93.048-54.411 20.923 0 49.764 9.492 68.298 54.517 19.661 47.855 37.99 72.12 54.444 72.12 6.692 0 21.709-3.679 46.559-28.573 20.275-20.241 30.582-38.533 28.227-50.108-3.105-15.466-27.238-32.596-71.713-50.921-30.482-12.557-48.402-31.304-53.317-55.706-8.737-43.758 31.539-83.999 53.181-105.638 25.769-25.815 76.083-60.188 108.204-81.134-20.992-32.133-51.507-76.334-71.749-96.573zM823.772 638.909c61.952 25.508 142.167 69.187 54.648 156.705-87.483 87.494-131.208 7.308-156.705-54.678-25.464-61.922-69.222-25.426-105.641 11.025-36.49 36.413-94.825 131.243-94.825 131.243s-58.266-94.72-94.72-131.174c-36.419-36.413-80.212-72.908-105.71-10.882-25.531 61.907-69.256 142.162-156.706 54.682-87.416-87.388-7.237-131.187 54.715-156.746 61.986-25.467 25.566-69.228-10.888-105.641-36.454-36.454-131.14-94.72-131.14-94.72l444.723-444.759c0 0 94.72 58.307 131.174 94.72 36.421 36.454 72.876 80.143 10.89 105.679-61.952 25.495-142.131 69.253-54.682 156.705 87.414 87.414 131.172 7.309 156.669-54.717 25.533-61.988 69.258-25.536 105.677 10.918 36.421 36.426 94.72 131.146 94.72 131.146s-94.753 58.335-131.174 94.828c-36.454 36.413-72.942 80.133-11.026 105.667z" />
<glyph unicode="&#xe94c;" glyph-name="judge" d="M409.6-16.891h-375.467v34.132h375.467v-34.132zM68.267 119.642h307.201v-68.268h-307.201v68.268zM409.6 153.774h-375.467v-102.4h-34.133v-102.4h443.732v102.4h-34.132v102.4zM969.864 113.769l-48.264-48.264-458.616 458.586 48.3 48.294 458.58-458.616zM342.323 451.689l-96.531 96.538 241.358 241.346 96.563-96.522-241.39-241.362zM294.057 355.116l-144.826 144.842 48.298 48.269 144.794-144.842-48.266-48.269zM535.45 886.132l144.794-144.828-48.266-48.254-144.827 144.786 48.3 48.295zM607.846 668.918l24.131-24.133 96.53 96.52-193.057 193.092-96.599-96.56 24.133-24.132-241.323-241.32-24.132 24.133-96.563-96.561 193.091-193.093 96.53 96.52-24.133 24.174 72.397 72.399 482.749-482.721 96.527 96.532-482.678 482.749 72.397 72.399z" />
</font>
</defs>
</svg>
